<svg width="44" height="45" viewBox="0 0 44 45" fill="none" xmlns="http://www.w3.org/2000/svg">
<rect y="0.232452" width="44" height="44.6392" rx="22" fill="white" fill-opacity="0.03"/>
<path d="M27.8154 19.8193C28.1229 19.8448 28.3587 20.0998 28.375 20.4072L28.3672 20.5781L28.1055 23.7881L27.8301 26.9199C27.7719 27.545 27.7197 28.0722 27.6748 28.4873C27.5186 29.934 26.5797 30.8289 25.1641 30.8554C22.9581 30.8962 20.8375 30.8961 18.7783 30.8515C17.4035 30.8227 16.4777 29.9178 16.3242 28.4931L16.2188 27.4443L16.0332 25.4082L15.8438 23.1738L15.626 20.4922C15.599 20.1481 15.85 19.847 16.1855 19.8193C16.4929 19.7942 16.765 20.007 16.8291 20.3076L16.8545 20.5537L17.0576 23.0674L17.2803 25.6738C17.3801 26.8018 17.4669 27.7151 17.5361 28.3564C17.6237 29.168 18.0515 29.5857 18.8037 29.6015C20.8467 29.6457 22.9512 29.6459 25.1416 29.6054C25.9396 29.5905 26.3736 29.1767 26.4629 28.3496L26.5693 27.3056C26.6002 26.984 26.633 26.6289 26.668 26.2431L26.8906 23.6806L27.1592 20.3916C27.184 20.0762 27.4327 19.8341 27.7324 19.8174L27.8154 19.8193ZM23.7197 14.2187C24.4225 14.2187 25.0431 14.6738 25.2822 15.3769L25.3232 15.5117L25.5205 16.5254C25.5825 16.8426 25.8354 17.0796 26.1416 17.1201L26.2354 17.1259H28.8906C29.2271 17.126 29.4998 17.406 29.5 17.7509C29.5 18.0672 29.271 18.3295 28.9736 18.3711L28.8906 18.3759H15.1094C14.7728 18.3759 14.5 18.0961 14.5 17.7509C14.5002 17.4348 14.7292 17.1733 15.0264 17.1318L15.1094 17.1259H17.7646C18.0802 17.1259 18.3562 16.9181 18.4551 16.6181L18.4795 16.5254L18.6855 15.4736C18.8673 14.7766 19.4579 14.2796 20.1494 14.2236L20.2803 14.2187H23.7197ZM20.2803 15.4687C20.1093 15.4687 19.9567 15.5712 19.8936 15.7002L19.8721 15.7568L19.6748 16.7705C19.6507 16.8939 19.6149 17.0126 19.5703 17.1259H24.4307C24.4029 17.0553 24.3765 16.9829 24.3564 16.9082L24.3252 16.7705L24.1367 15.7959C24.0926 15.6269 23.9562 15.5029 23.792 15.4746L23.7197 15.4687H20.2803Z" fill="white"/>
</svg>
