<svg width="273" height="253" viewBox="0 0 273 253" fill="none" xmlns="http://www.w3.org/2000/svg">
<path d="M42.8828 88V74.9043H47.7783C49.126 74.9043 50.1748 75.2178 50.9248 75.8447C51.6807 76.4658 52.0586 77.3008 52.0586 78.3496C52.0586 79.0996 51.8623 79.709 51.4697 80.1777C51.083 80.6465 50.5469 80.9863 49.8613 81.1973V81.2148C50.623 81.3203 51.2646 81.6309 51.7861 82.1465C52.3135 82.6621 52.5771 83.3857 52.5771 84.3174C52.5771 85.4307 52.1875 86.3242 51.4082 86.998C50.6348 87.666 49.4746 88 47.9277 88H42.8828ZM44.8164 86.3564H47.8047C48.6953 86.3564 49.3809 86.1836 49.8613 85.8379C50.3477 85.4863 50.5908 84.9766 50.5908 84.3086C50.5908 83.6465 50.3535 83.1221 49.8789 82.7354C49.4102 82.3486 48.7422 82.1553 47.875 82.1553H44.8164V86.3564ZM44.8164 80.5469H47.752C48.4961 80.5469 49.0762 80.3682 49.4922 80.0107C49.9141 79.6533 50.125 79.167 50.125 78.5518C50.125 77.9365 49.9141 77.4502 49.4922 77.0928C49.0762 76.7295 48.4961 76.5479 47.752 76.5479H44.8164V80.5469ZM58.2285 88.2109C57.3086 88.2109 56.5176 88.0029 55.8555 87.5869C55.1992 87.1709 54.6924 86.5996 54.335 85.873C53.9834 85.1406 53.8076 84.3086 53.8076 83.377C53.8076 82.4336 53.9922 81.5957 54.3613 80.8633C54.7305 80.1309 55.2402 79.5566 55.8906 79.1406C56.541 78.7188 57.2881 78.5078 58.1318 78.5078C59.0107 78.5078 59.7725 78.7129 60.417 79.123C61.0674 79.5332 61.5713 80.1045 61.9287 80.8369C62.2861 81.5635 62.4648 82.4043 62.4648 83.3594V83.8604H55.6357C55.6709 84.6982 55.9111 85.375 56.3564 85.8906C56.8076 86.4062 57.4404 86.6641 58.2549 86.6641C58.8643 86.6641 59.3652 86.5264 59.7578 86.251C60.1504 85.9756 60.4111 85.6182 60.54 85.1787H62.3242C62.2129 85.7764 61.9639 86.3037 61.5771 86.7607C61.1963 87.2178 60.7158 87.5752 60.1357 87.833C59.5615 88.085 58.9258 88.2109 58.2285 88.2109ZM55.6533 82.4541H60.6543C60.5781 81.7158 60.3174 81.1328 59.8721 80.7051C59.4268 80.2715 58.8525 80.0547 58.1494 80.0547C57.4463 80.0547 56.8721 80.2715 56.4268 80.7051C55.9873 81.1328 55.7295 81.7158 55.6533 82.4541ZM68.5732 78.7188V80.248H66.6836V88H64.8291V80.248H63.168V78.7188H64.8291V77.2158C64.8291 76.4834 65.0576 75.915 65.5146 75.5107C65.9775 75.1064 66.6279 74.9043 67.4658 74.9043H68.5732V76.4336H67.7559C67.3633 76.4336 67.085 76.5156 66.9209 76.6797C66.7627 76.8438 66.6836 77.1221 66.6836 77.5146V78.7188H68.5732ZM73.7939 88.2109C72.9092 88.2109 72.1328 88.0059 71.4648 87.5957C70.7969 87.1855 70.2754 86.6172 69.9004 85.8906C69.5312 85.1641 69.3467 84.3262 69.3467 83.377C69.3467 82.416 69.5312 81.5723 69.9004 80.8457C70.2754 80.1133 70.7969 79.542 71.4648 79.1318C72.1328 78.7158 72.9092 78.5078 73.7939 78.5078C74.6787 78.5078 75.4521 78.7158 76.1143 79.1318C76.7822 79.542 77.3008 80.1133 77.6699 80.8457C78.0449 81.5723 78.2324 82.416 78.2324 83.377C78.2324 84.3262 78.0449 85.1641 77.6699 85.8906C77.3008 86.6172 76.7822 87.1855 76.1143 87.5957C75.4521 88.0059 74.6787 88.2109 73.7939 88.2109ZM73.7939 86.6113C74.5908 86.6113 75.2178 86.3184 75.6748 85.7324C76.1318 85.1465 76.3604 84.3613 76.3604 83.377C76.3604 82.3809 76.1289 81.5869 75.666 80.9951C75.209 80.4033 74.585 80.1074 73.7939 80.1074C73.0029 80.1074 72.376 80.4033 71.9131 80.9951C71.4561 81.5811 71.2275 82.375 71.2275 83.377C71.2275 84.3672 71.4561 85.1553 71.9131 85.7412C72.3701 86.3213 72.9971 86.6113 73.7939 86.6113ZM79.876 88V78.7188H81.6514V80.2217H81.6865C81.8564 79.7119 82.123 79.3164 82.4863 79.0352C82.8555 78.748 83.3359 78.6045 83.9277 78.6045C84.0684 78.6045 84.1973 78.6104 84.3145 78.6221C84.4316 78.6338 84.5283 78.6426 84.6045 78.6484V80.3799C84.5342 80.3623 84.4082 80.3447 84.2266 80.3271C84.0449 80.3037 83.8457 80.292 83.6289 80.292C83.1074 80.292 82.6592 80.4736 82.2842 80.8369C81.915 81.2002 81.7305 81.7598 81.7305 82.5156V88H79.876ZM89.8164 88.2109C88.8965 88.2109 88.1055 88.0029 87.4434 87.5869C86.7871 87.1709 86.2803 86.5996 85.9229 85.873C85.5713 85.1406 85.3955 84.3086 85.3955 83.377C85.3955 82.4336 85.5801 81.5957 85.9492 80.8633C86.3184 80.1309 86.8281 79.5566 87.4785 79.1406C88.1289 78.7188 88.876 78.5078 89.7197 78.5078C90.5986 78.5078 91.3604 78.7129 92.0049 79.123C92.6553 79.5332 93.1592 80.1045 93.5166 80.8369C93.874 81.5635 94.0527 82.4043 94.0527 83.3594V83.8604H87.2236C87.2588 84.6982 87.499 85.375 87.9443 85.8906C88.3955 86.4062 89.0283 86.6641 89.8428 86.6641C90.4521 86.6641 90.9531 86.5264 91.3457 86.251C91.7383 85.9756 91.999 85.6182 92.1279 85.1787H93.9121C93.8008 85.7764 93.5518 86.3037 93.165 86.7607C92.7842 87.2178 92.3037 87.5752 91.7236 87.833C91.1494 88.085 90.5137 88.2109 89.8164 88.2109ZM87.2412 82.4541H92.2422C92.166 81.7158 91.9053 81.1328 91.46 80.7051C91.0146 80.2715 90.4404 80.0547 89.7373 80.0547C89.0342 80.0547 88.46 80.2715 88.0146 80.7051C87.5752 81.1328 87.3174 81.7158 87.2412 82.4541Z" fill="#A7A7A7"/>
<path d="M36.3828 111V97.9043H38.334V103.45H44.8467V97.9043H46.7979V111H44.8467V105.155H38.334V111H36.3828ZM53.0117 111.211C52.0918 111.211 51.3008 111.003 50.6387 110.587C49.9824 110.171 49.4756 109.6 49.1182 108.873C48.7666 108.141 48.5908 107.309 48.5908 106.377C48.5908 105.434 48.7754 104.596 49.1445 103.863C49.5137 103.131 50.0234 102.557 50.6738 102.141C51.3242 101.719 52.0713 101.508 52.915 101.508C53.7939 101.508 54.5557 101.713 55.2002 102.123C55.8506 102.533 56.3545 103.104 56.7119 103.837C57.0693 104.563 57.248 105.404 57.248 106.359V106.86H50.4189C50.4541 107.698 50.6943 108.375 51.1396 108.891C51.5908 109.406 52.2236 109.664 53.0381 109.664C53.6475 109.664 54.1484 109.526 54.541 109.251C54.9336 108.976 55.1943 108.618 55.3232 108.179H57.1074C56.9961 108.776 56.7471 109.304 56.3604 109.761C55.9795 110.218 55.499 110.575 54.9189 110.833C54.3447 111.085 53.709 111.211 53.0117 111.211ZM50.4365 105.454H55.4375C55.3613 104.716 55.1006 104.133 54.6553 103.705C54.21 103.271 53.6357 103.055 52.9326 103.055C52.2295 103.055 51.6553 103.271 51.21 103.705C50.7705 104.133 50.5127 104.716 50.4365 105.454ZM61.792 111.149C60.8662 111.149 60.0986 110.915 59.4893 110.446C58.8799 109.972 58.5752 109.271 58.5752 108.346C58.5752 107.643 58.748 107.104 59.0938 106.729C59.4453 106.348 59.8994 106.075 60.4561 105.911C61.0186 105.747 61.6133 105.627 62.2402 105.551C62.8203 105.48 63.2803 105.422 63.6201 105.375C63.96 105.328 64.2002 105.258 64.3408 105.164C64.4873 105.07 64.5605 104.909 64.5605 104.681V104.602C64.5605 104.15 64.3965 103.781 64.0684 103.494C63.7402 103.201 63.2803 103.055 62.6885 103.055C62.0967 103.055 61.6133 103.198 61.2383 103.485C60.8633 103.767 60.6582 104.121 60.623 104.549H58.8037C58.8447 103.664 59.2168 102.94 59.9199 102.378C60.623 101.815 61.5547 101.534 62.7148 101.534C63.8574 101.534 64.7568 101.815 65.4131 102.378C66.0693 102.94 66.3975 103.693 66.3975 104.637V111H64.5693V109.682H64.5342C64.3408 110.057 64.0332 110.396 63.6113 110.701C63.1953 111 62.5889 111.149 61.792 111.149ZM62.1699 109.655C62.9902 109.655 63.5938 109.444 63.9805 109.022C64.373 108.595 64.5693 108.097 64.5693 107.528V106.438C64.4463 106.538 64.168 106.629 63.7344 106.711C63.3008 106.787 62.8379 106.86 62.3457 106.931C61.8359 107.007 61.3877 107.15 61.001 107.361C60.6143 107.572 60.4209 107.912 60.4209 108.381C60.4209 108.779 60.5762 109.093 60.8867 109.321C61.2031 109.544 61.6309 109.655 62.1699 109.655ZM72.0576 111.185C71.249 111.185 70.543 110.982 69.9395 110.578C69.3359 110.168 68.8672 109.603 68.5332 108.882C68.1992 108.155 68.0322 107.314 68.0322 106.359C68.0322 105.404 68.1992 104.566 68.5332 103.846C68.873 103.119 69.3447 102.554 69.9482 102.149C70.5518 101.739 71.252 101.534 72.0488 101.534C72.6523 101.534 73.2031 101.66 73.7012 101.912C74.1992 102.164 74.5977 102.548 74.8965 103.063H74.9141V97.9043H76.7686V111H74.9492V109.585H74.9316C74.6211 110.124 74.2139 110.525 73.71 110.789C73.2119 111.053 72.6611 111.185 72.0576 111.185ZM72.4355 109.585C73.2266 109.585 73.8564 109.292 74.3252 108.706C74.7998 108.114 75.0371 107.332 75.0371 106.359C75.0371 105.381 74.7998 104.599 74.3252 104.013C73.8564 103.421 73.2266 103.125 72.4355 103.125C71.6855 103.125 71.0762 103.403 70.6074 103.96C70.1445 104.511 69.9131 105.311 69.9131 106.359C69.9131 107.408 70.1445 108.208 70.6074 108.759C71.0762 109.31 71.6855 109.585 72.4355 109.585ZM84.1426 111.211C83.0938 111.211 82.1797 111.012 81.4004 110.613C80.627 110.209 80.0234 109.652 79.5898 108.943C79.1621 108.234 78.9482 107.426 78.9482 106.518V97.9043H80.8906V106.359C80.8906 107.256 81.1807 107.994 81.7607 108.574C82.3467 109.154 83.1406 109.444 84.1426 109.444C85.1504 109.444 85.9443 109.154 86.5244 108.574C87.1104 107.994 87.4033 107.256 87.4033 106.359V97.9043H89.3457V106.518C89.3457 107.426 89.1289 108.234 88.6953 108.943C88.2676 109.652 87.6641 110.209 86.8848 110.613C86.1055 111.012 85.1914 111.211 84.1426 111.211ZM91.5342 114.674V101.719H93.3535V103.055H93.3799C93.6729 102.545 94.0742 102.164 94.584 101.912C95.0938 101.66 95.6504 101.534 96.2539 101.534C97.0508 101.534 97.751 101.739 98.3545 102.149C98.958 102.554 99.4268 103.119 99.7607 103.846C100.101 104.566 100.271 105.404 100.271 106.359C100.271 107.314 100.104 108.155 99.7695 108.882C99.4355 109.603 98.9668 110.168 98.3633 110.578C97.7598 110.982 97.0537 111.185 96.2451 111.185C95.6416 111.185 95.0967 111.053 94.6104 110.789C94.124 110.525 93.7256 110.13 93.415 109.603H93.3887V114.674H91.5342ZM95.8672 109.585C96.6172 109.585 97.2236 109.31 97.6865 108.759C98.1553 108.208 98.3896 107.408 98.3896 106.359C98.3896 105.311 98.1553 104.511 97.6865 103.96C97.2236 103.403 96.6172 103.125 95.8672 103.125C95.0762 103.125 94.4434 103.421 93.9688 104.013C93.5 104.599 93.2656 105.381 93.2656 106.359C93.2656 107.332 93.5 108.114 93.9688 108.706C94.4434 109.292 95.0762 109.585 95.8672 109.585Z" fill="white"/>
<g clip-path="url(#clip0_601_20942)">
<path d="M0.875 136C0.875 131.582 4.45672 128 8.875 128H135.5V253H8.875C4.45672 253 0.875 249.418 0.875 245V136Z" fill="#202020" fill-opacity="0.3"/>
<path d="M15.7534 171.438V169.248H10.6045V168.046C10.8926 167.568 11.1855 167.084 11.4834 166.596C11.7812 166.103 12.0815 165.612 12.3843 165.124C12.6919 164.631 12.9995 164.143 13.3071 163.659C13.6147 163.176 13.9199 162.7 14.2227 162.231C14.5303 161.762 14.833 161.308 15.1309 160.869H17.0425V168.068H18.5439V169.248H17.0425V171.438H15.7534ZM11.9521 168.076H15.7607V162.092H15.6729C15.4336 162.448 15.1895 162.819 14.9404 163.205C14.6914 163.586 14.4375 163.977 14.1787 164.377C13.9248 164.777 13.6709 165.18 13.417 165.585C13.1631 165.991 12.9116 166.396 12.6626 166.801C12.4185 167.202 12.1816 167.597 11.9521 167.988V168.076ZM20.6606 171.438V160.407H21.9351V164.729H22.0522C22.2524 164.309 22.5405 163.984 22.9165 163.754C23.2925 163.52 23.771 163.403 24.3521 163.403C24.9429 163.403 25.4434 163.518 25.8535 163.747C26.2637 163.972 26.5762 164.301 26.791 164.736C27.0059 165.17 27.1133 165.7 27.1133 166.325V171.438H25.8389V166.633C25.8389 165.92 25.6875 165.393 25.3848 165.051C25.0869 164.704 24.623 164.531 23.9932 164.531C23.5732 164.531 23.2095 164.621 22.9019 164.802C22.5942 164.982 22.355 165.239 22.1841 165.571C22.0181 165.903 21.9351 166.301 21.9351 166.765V171.438H20.6606ZM36.2173 171.438V162.333H36.1001L33.4121 164.282V162.89L36.2246 160.869H37.5356V171.438H36.2173ZM41.0293 171.438L45.7754 162.15V162.048H40.1211V160.869H47.1157V162.092L42.4136 171.438H41.0293ZM49.1372 171.438V163.542H50.4116V164.743H50.5288C50.7046 164.318 50.9731 163.989 51.3345 163.754C51.7007 163.52 52.1426 163.403 52.6602 163.403C53.0166 163.403 53.3364 163.461 53.6196 163.579C53.9028 163.696 54.147 163.859 54.3521 164.069C54.5571 164.274 54.7207 164.514 54.8428 164.787H54.96C55.1016 164.509 55.292 164.267 55.5312 164.062C55.7705 163.852 56.0464 163.691 56.3589 163.579C56.6763 163.461 57.0156 163.403 57.377 163.403C57.9141 163.403 58.3682 163.503 58.7393 163.703C59.1152 163.903 59.4009 164.196 59.5962 164.582C59.7915 164.963 59.8892 165.429 59.8892 165.981V171.438H58.6147V166.274C58.6147 165.883 58.5537 165.561 58.4316 165.307C58.3145 165.048 58.1338 164.855 57.8896 164.729C57.6455 164.597 57.3379 164.531 56.9668 164.531C56.6006 164.531 56.2808 164.614 56.0073 164.78C55.7339 164.946 55.5215 165.168 55.3701 165.446C55.2188 165.72 55.1431 166.025 55.1431 166.362V171.438H53.8687V166.076C53.8687 165.764 53.8003 165.493 53.6636 165.263C53.5317 165.029 53.3413 164.848 53.0923 164.721C52.8481 164.594 52.5601 164.531 52.228 164.531C51.8862 164.531 51.5762 164.621 51.2979 164.802C51.0244 164.982 50.8071 165.227 50.646 165.534C50.4897 165.837 50.4116 166.174 50.4116 166.545V171.438H49.1372Z" fill="white"/>
<path d="M12.8364 152.606C12.3157 152.606 11.8608 152.522 11.4719 152.353C11.0863 152.182 10.7798 151.948 10.5524 151.651C10.3282 151.352 10.1981 151.009 10.1618 150.623L10.1569 150.569H11.0468L11.0517 150.623C11.0748 150.86 11.1654 151.066 11.3236 151.241C11.4851 151.412 11.6993 151.546 11.9663 151.642C12.2366 151.737 12.5431 151.785 12.8859 151.785C13.2089 151.785 13.4956 151.734 13.7461 151.632C13.9999 151.526 14.1993 151.381 14.3443 151.197C14.4893 151.012 14.5618 150.799 14.5618 150.559V150.554C14.5618 150.257 14.4531 150.008 14.2355 149.807C14.018 149.603 13.6637 149.446 13.1726 149.338L12.3816 149.165C11.6664 149.006 11.1456 148.763 10.8193 148.433C10.4963 148.1 10.3348 147.675 10.3348 147.157V147.153C10.3381 146.757 10.4453 146.408 10.6562 146.104C10.8704 145.801 11.1654 145.564 11.5411 145.393C11.9202 145.221 12.3552 145.135 12.8463 145.135C13.3209 145.135 13.7411 145.221 14.107 145.393C14.4728 145.561 14.7629 145.788 14.9771 146.075C15.1946 146.362 15.3149 146.683 15.338 147.039L15.343 147.108H14.4531L14.4432 147.044C14.4102 146.833 14.3245 146.647 14.1861 146.485C14.0477 146.32 13.8631 146.19 13.6324 146.095C13.4017 145.999 13.1314 145.953 12.8216 145.956C12.525 145.956 12.258 146.002 12.0207 146.095C11.7834 146.187 11.5939 146.32 11.4521 146.495C11.3137 146.666 11.2445 146.877 11.2445 147.128V147.133C11.2445 147.416 11.35 147.655 11.5609 147.85C11.7719 148.044 12.1196 148.194 12.6041 148.299L13.3951 148.477C13.8928 148.586 14.2932 148.728 14.5964 148.903C14.8997 149.077 15.1205 149.292 15.2589 149.545C15.4006 149.796 15.4715 150.092 15.4715 150.435V150.44C15.4715 150.885 15.3627 151.269 15.1452 151.592C14.9277 151.915 14.6212 152.166 14.2256 152.344C13.8301 152.518 13.3671 152.606 12.8364 152.606ZM19.0261 152.531C18.5284 152.531 18.0967 152.418 17.7308 152.19C17.365 151.963 17.0815 151.642 16.8805 151.226C16.6794 150.811 16.5789 150.322 16.5789 149.758V149.748C16.5789 149.194 16.6778 148.713 16.8755 148.304C17.0766 147.896 17.36 147.579 17.7259 147.355C18.0917 147.128 18.5235 147.014 19.0212 147.014C19.4529 147.014 19.8254 147.09 20.1385 147.242C20.4516 147.393 20.7021 147.597 20.89 147.855C21.0778 148.108 21.1981 148.393 21.2509 148.71L21.2558 148.74H20.4005L20.3956 148.725C20.3297 148.461 20.1797 148.237 19.9457 148.052C19.7117 147.868 19.4035 147.775 19.0212 147.775C18.7015 147.775 18.4246 147.856 18.1906 148.018C17.9566 148.179 17.7753 148.408 17.6468 148.705C17.5215 148.998 17.4589 149.346 17.4589 149.748V149.758C17.4589 150.167 17.5232 150.523 17.6517 150.826C17.7803 151.126 17.9615 151.358 18.1956 151.523C18.4296 151.688 18.7048 151.77 19.0212 151.77C19.3804 151.77 19.6738 151.693 19.9012 151.538C20.1286 151.383 20.2917 151.157 20.3906 150.86L20.4005 150.831L21.2509 150.826L21.241 150.88C21.1685 151.2 21.0399 151.485 20.8553 151.735C20.6708 151.983 20.4269 152.177 20.1237 152.319C19.8204 152.461 19.4546 152.531 19.0261 152.531ZM22.5115 152.438V147.108H23.3718V147.899H23.4509C23.553 147.619 23.7261 147.401 23.97 147.246C24.2139 147.092 24.5154 147.014 24.8747 147.014C24.9571 147.014 25.0378 147.019 25.1169 147.029C25.1993 147.036 25.262 147.042 25.3048 147.049V147.884C25.2158 147.868 25.1285 147.856 25.0428 147.85C24.9604 147.84 24.8714 147.835 24.7758 147.835C24.5023 147.835 24.26 147.889 24.0491 147.998C23.8381 148.107 23.6717 148.258 23.5497 148.453C23.4311 148.647 23.3718 148.875 23.3718 149.135V152.438H22.5115ZM28.3947 152.531C27.8871 152.531 27.4504 152.419 27.0846 152.195C26.722 151.971 26.4419 151.655 26.2441 151.246C26.0497 150.834 25.9525 150.35 25.9525 149.793V149.788C25.9525 149.237 26.0497 148.754 26.2441 148.339C26.4419 147.924 26.7204 147.599 27.0797 147.365C27.4389 147.131 27.8591 147.014 28.3403 147.014C28.8248 147.014 29.2401 147.126 29.5862 147.35C29.9355 147.574 30.2025 147.888 30.3871 148.29C30.575 148.688 30.6689 149.153 30.6689 149.684V150.02H26.3974V149.333H30.2289L29.8037 149.961V149.62C29.8037 149.201 29.7411 148.857 29.6158 148.586C29.4906 148.316 29.3176 148.115 29.0967 147.983C28.8759 147.848 28.6221 147.78 28.3354 147.78C28.0486 147.78 27.7916 147.851 27.5641 147.993C27.34 148.131 27.162 148.337 27.0302 148.611C26.8984 148.885 26.8325 149.221 26.8325 149.62V149.961C26.8325 150.34 26.8967 150.664 27.0253 150.935C27.1538 151.202 27.3367 151.408 27.574 151.553C27.8113 151.694 28.0915 151.765 28.4145 151.765C28.6551 151.765 28.8644 151.732 29.0424 151.666C29.2203 151.6 29.367 151.516 29.4824 151.414C29.5977 151.312 29.6785 151.208 29.7246 151.103L29.7444 151.058H30.6046L30.5947 151.098C30.5486 151.279 30.4662 151.455 30.3475 151.627C30.2322 151.795 30.0822 151.948 29.8976 152.086C29.7131 152.222 29.4939 152.33 29.2401 152.413C28.9896 152.492 28.7078 152.531 28.3947 152.531ZM34.179 152.531C33.6714 152.531 33.2347 152.419 32.8689 152.195C32.5063 151.971 32.2262 151.655 32.0284 151.246C31.834 150.834 31.7368 150.35 31.7368 149.793V149.788C31.7368 149.237 31.834 148.754 32.0284 148.339C32.2262 147.924 32.5047 147.599 32.864 147.365C33.2232 147.131 33.6434 147.014 34.1246 147.014C34.6091 147.014 35.0244 147.126 35.3705 147.35C35.7198 147.574 35.9868 147.888 36.1714 148.29C36.3593 148.688 36.4532 149.153 36.4532 149.684V150.02H32.1817V149.333H36.0132L35.588 149.961V149.62C35.588 149.201 35.5254 148.857 35.4001 148.586C35.2749 148.316 35.1019 148.115 34.881 147.983C34.6602 147.848 34.4064 147.78 34.1197 147.78C33.8329 147.78 33.5759 147.851 33.3484 147.993C33.1243 148.131 32.9464 148.337 32.8145 148.611C32.6827 148.885 32.6168 149.221 32.6168 149.62V149.961C32.6168 150.34 32.681 150.664 32.8096 150.935C32.9381 151.202 33.121 151.408 33.3583 151.553C33.5956 151.694 33.8758 151.765 34.1988 151.765C34.4394 151.765 34.6487 151.732 34.8267 151.666C35.0046 151.6 35.1513 151.516 35.2667 151.414C35.382 151.312 35.4628 151.208 35.5089 151.103L35.5287 151.058H36.3889L36.379 151.098C36.3329 151.279 36.2505 151.455 36.1318 151.627C36.0165 151.795 35.8665 151.948 35.6819 152.086C35.4974 152.222 35.2782 152.33 35.0244 152.413C34.7739 152.492 34.4921 152.531 34.179 152.531ZM37.788 152.438V147.108H38.6483V147.909H38.7274C38.8625 147.625 39.0569 147.406 39.3107 147.251C39.5645 147.093 39.8875 147.014 40.2797 147.014C40.8796 147.014 41.3394 147.185 41.6591 147.528C41.9821 147.868 42.1436 148.354 42.1436 148.987V152.438H41.2833V149.194C41.2833 148.713 41.1812 148.357 40.9768 148.126C40.7758 147.892 40.4626 147.775 40.0375 147.775C39.754 147.775 39.5085 147.836 39.3008 147.958C39.0932 148.08 38.9317 148.253 38.8163 148.477C38.7043 148.702 38.6483 148.97 38.6483 149.283V152.438H37.788ZM48.5112 152.438V146.104H46.2123V145.304H51.7V146.104H49.4011V152.438H48.5112ZM52.8865 152.438V147.108H53.7468V152.438H52.8865ZM53.3216 146.08C53.1601 146.08 53.02 146.022 52.9014 145.907C52.786 145.788 52.7283 145.648 52.7283 145.486C52.7283 145.322 52.786 145.182 52.9014 145.066C53.02 144.951 53.1601 144.893 53.3216 144.893C53.4864 144.893 53.6265 144.951 53.7418 145.066C53.8572 145.182 53.9149 145.322 53.9149 145.486C53.9149 145.648 53.8572 145.788 53.7418 145.907C53.6265 146.022 53.4864 146.08 53.3216 146.08ZM55.3683 152.438V147.108H56.2286V147.919H56.3077C56.4263 147.632 56.6076 147.41 56.8515 147.251C57.0987 147.093 57.397 147.014 57.7463 147.014C57.9869 147.014 58.2028 147.054 58.394 147.133C58.5851 147.212 58.7499 147.322 58.8884 147.464C59.0268 147.602 59.1372 147.764 59.2196 147.948H59.2987C59.3943 147.761 59.5228 147.597 59.6843 147.459C59.8458 147.317 60.032 147.209 60.243 147.133C60.4572 147.054 60.6863 147.014 60.9302 147.014C61.2927 147.014 61.5992 147.082 61.8497 147.217C62.1035 147.352 62.2963 147.55 62.4282 147.81C62.56 148.067 62.6259 148.382 62.6259 148.754V152.438H61.7657V148.952C61.7657 148.688 61.7245 148.471 61.6421 148.299C61.563 148.125 61.441 147.995 61.2762 147.909C61.1115 147.82 60.9038 147.775 60.6533 147.775C60.4061 147.775 60.1902 147.831 60.0057 147.944C59.8211 148.056 59.6777 148.206 59.5756 148.393C59.4734 148.578 59.4223 148.784 59.4223 149.011V152.438H58.5621V148.819C58.5621 148.608 58.5159 148.425 58.4236 148.27C58.3347 148.112 58.2061 147.99 58.038 147.904C57.8732 147.818 57.6788 147.775 57.4547 147.775C57.2239 147.775 57.0146 147.836 56.8268 147.958C56.6422 148.08 56.4955 148.245 56.3868 148.453C56.2813 148.657 56.2286 148.885 56.2286 149.135V152.438H55.3683ZM66.3536 152.531C65.846 152.531 65.4093 152.419 65.0435 152.195C64.6809 151.971 64.4008 151.655 64.203 151.246C64.0085 150.834 63.9113 150.35 63.9113 149.793V149.788C63.9113 149.237 64.0085 148.754 64.203 148.339C64.4008 147.924 64.6793 147.599 65.0385 147.365C65.3978 147.131 65.818 147.014 66.2992 147.014C66.7837 147.014 67.199 147.126 67.545 147.35C67.8944 147.574 68.1614 147.888 68.3459 148.29C68.5338 148.688 68.6277 149.153 68.6277 149.684V150.02H64.3563V149.333H68.1877L67.7626 149.961V149.62C67.7626 149.201 67.7 148.857 67.5747 148.586C67.4495 148.316 67.2764 148.115 67.0556 147.983C66.8348 147.848 66.581 147.78 66.2943 147.78C66.0075 147.78 65.7504 147.851 65.523 147.993C65.2989 148.131 65.1209 148.337 64.9891 148.611C64.8572 148.885 64.7913 149.221 64.7913 149.62V149.961C64.7913 150.34 64.8556 150.664 64.9841 150.935C65.1127 151.202 65.2956 151.408 65.5329 151.553C65.7702 151.694 66.0504 151.765 66.3734 151.765C66.614 151.765 66.8232 151.732 67.0012 151.666C67.1792 151.6 67.3259 151.516 67.4412 151.414C67.5566 151.312 67.6373 151.208 67.6835 151.103L67.7032 151.058H68.5635L68.5536 151.098C68.5074 151.279 68.425 151.455 68.3064 151.627C68.191 151.795 68.0411 151.948 67.8565 152.086C67.6719 152.222 67.4528 152.33 67.199 152.413C66.9485 152.492 66.6667 152.531 66.3536 152.531Z" fill="#A9A9AB"/>
<g clip-path="url(#clip1_601_20942)">
<mask id="path-6-inside-1_601_20942" fill="white">
<path d="M12.375 181.812H178.5V229.813H12.375V181.812Z"/>
</mask>
<line x1="12.375" y1="193.625" x2="178.5" y2="193.625" stroke="#2A2A2C" stroke-width="0.375"/>
<line x1="12.375" y1="205.625" x2="178.5" y2="205.625" stroke="#2A2A2C" stroke-width="0.375"/>
<line x1="12.375" y1="217.625" x2="178.5" y2="217.625" stroke="#2A2A2C" stroke-width="0.375"/>
</g>
<path d="M12.375 181.812V182.188H178.5V181.812V181.438H12.375V181.812ZM178.5 229.813V229.438H12.375V229.813V230.188H178.5V229.813Z" fill="#2A2A2C" mask="url(#path-6-inside-1_601_20942)"/>
<g clip-path="url(#clip2_601_20942)">
<mask id="path-11-inside-2_601_20942" fill="white">
<path d="M12.375 181.812H178.5V229.812H12.375V181.812Z"/>
</mask>
<line x1="35.8125" y1="229.812" x2="35.8125" y2="181.812" stroke="#2A2A2C" stroke-width="0.375" stroke-dasharray="1.5 1.5"/>
<line x1="59.5879" y1="229.812" x2="59.5879" y2="181.812" stroke="#2A2A2C" stroke-width="0.375" stroke-dasharray="1.5 1.5"/>
<line x1="83.3623" y1="229.812" x2="83.3623" y2="181.812" stroke="#2A2A2C" stroke-width="0.375" stroke-dasharray="1.5 1.5"/>
<line x1="107.138" y1="229.812" x2="107.138" y2="181.812" stroke="#2A2A2C" stroke-width="0.375" stroke-dasharray="1.5 1.5"/>
<line x1="130.912" y1="229.812" x2="130.912" y2="181.812" stroke="#2A2A2C" stroke-width="0.375" stroke-dasharray="1.5 1.5"/>
</g>
<path d="M12.375 181.812H12.1875V182.562H12.375H12.5625V181.812H12.375ZM12.375 184.062H12.1875V185.562H12.375H12.5625V184.062H12.375ZM12.375 187.062H12.1875V188.562H12.375H12.5625V187.062H12.375ZM12.375 190.062H12.1875V191.562H12.375H12.5625V190.062H12.375ZM12.375 193.062H12.1875V194.562H12.375H12.5625V193.062H12.375ZM12.375 196.062H12.1875V197.562H12.375H12.5625V196.062H12.375ZM12.375 199.062H12.1875V200.562H12.375H12.5625V199.062H12.375ZM12.375 202.062H12.1875V203.562H12.375H12.5625V202.062H12.375ZM12.375 205.062H12.1875V206.562H12.375H12.5625V205.062H12.375ZM12.375 208.062H12.1875V209.562H12.375H12.5625V208.062H12.375ZM12.375 211.062H12.1875V212.562H12.375H12.5625V211.062H12.375ZM12.375 214.062H12.1875V215.562H12.375H12.5625V214.062H12.375ZM12.375 217.062H12.1875V218.562H12.375H12.5625V217.062H12.375ZM12.375 220.062H12.1875V221.562H12.375H12.5625V220.062H12.375ZM12.375 223.062H12.1875V224.562H12.375H12.5625V223.062H12.375ZM12.375 226.062H12.1875V227.562H12.375H12.5625V226.062H12.375ZM12.375 229.062H12.1875V229.812H12.375H12.5625V229.062H12.375ZM178.5 229.812H178.688V229.062H178.5H178.312V229.812H178.5ZM178.5 227.562H178.688V226.062H178.5H178.312V227.562H178.5ZM178.5 224.562H178.688V223.062H178.5H178.312V224.562H178.5ZM178.5 221.562H178.688V220.062H178.5H178.312V221.562H178.5ZM178.5 218.562H178.688V217.062H178.5H178.312V218.562H178.5ZM178.5 215.562H178.688V214.062H178.5H178.312V215.562H178.5ZM178.5 212.562H178.688V211.062H178.5H178.312V212.562H178.5ZM178.5 209.562H178.688V208.062H178.5H178.312V209.562H178.5ZM178.5 206.562H178.688V205.062H178.5H178.312V206.562H178.5ZM178.5 203.562H178.688V202.062H178.5H178.312V203.562H178.5ZM178.5 200.562H178.688V199.062H178.5H178.312V200.562H178.5ZM178.5 197.562H178.688V196.062H178.5H178.312V197.562H178.5ZM178.5 194.562H178.688V193.062H178.5H178.312V194.562H178.5ZM178.5 191.562H178.688V190.062H178.5H178.312V191.562H178.5ZM178.5 188.562H178.688V187.062H178.5H178.312V188.562H178.5ZM178.5 185.562H178.688V184.062H178.5H178.312V185.562H178.5ZM178.5 182.562H178.688V181.812H178.5H178.312V182.562H178.5ZM12.375 181.812H12V182.562H12.375H12.75V181.812H12.375ZM12.375 184.062H12V185.562H12.375H12.75V184.062H12.375ZM12.375 187.062H12V188.562H12.375H12.75V187.062H12.375ZM12.375 190.062H12V191.562H12.375H12.75V190.062H12.375ZM12.375 193.062H12V194.562H12.375H12.75V193.062H12.375ZM12.375 196.062H12V197.562H12.375H12.75V196.062H12.375ZM12.375 199.062H12V200.562H12.375H12.75V199.062H12.375ZM12.375 202.062H12V203.562H12.375H12.75V202.062H12.375ZM12.375 205.062H12V206.562H12.375H12.75V205.062H12.375ZM12.375 208.062H12V209.562H12.375H12.75V208.062H12.375ZM12.375 211.062H12V212.562H12.375H12.75V211.062H12.375ZM12.375 214.062H12V215.562H12.375H12.75V214.062H12.375ZM12.375 217.062H12V218.562H12.375H12.75V217.062H12.375ZM12.375 220.062H12V221.562H12.375H12.75V220.062H12.375ZM12.375 223.062H12V224.562H12.375H12.75V223.062H12.375ZM12.375 226.062H12V227.562H12.375H12.75V226.062H12.375ZM12.375 229.062H12V229.812H12.375H12.75V229.062H12.375ZM178.5 229.812H178.875V229.062H178.5H178.125V229.812H178.5ZM178.5 227.562H178.875V226.062H178.5H178.125V227.562H178.5ZM178.5 224.562H178.875V223.062H178.5H178.125V224.562H178.5ZM178.5 221.562H178.875V220.062H178.5H178.125V221.562H178.5ZM178.5 218.562H178.875V217.062H178.5H178.125V218.562H178.5ZM178.5 215.562H178.875V214.062H178.5H178.125V215.562H178.5ZM178.5 212.562H178.875V211.062H178.5H178.125V212.562H178.5ZM178.5 209.562H178.875V208.062H178.5H178.125V209.562H178.5ZM178.5 206.562H178.875V205.062H178.5H178.125V206.562H178.5ZM178.5 203.562H178.875V202.062H178.5H178.125V203.562H178.5ZM178.5 200.562H178.875V199.062H178.5H178.125V200.562H178.5ZM178.5 197.562H178.875V196.062H178.5H178.125V197.562H178.5ZM178.5 194.562H178.875V193.062H178.5H178.125V194.562H178.5ZM178.5 191.562H178.875V190.062H178.5H178.125V191.562H178.5ZM178.5 188.562H178.875V187.062H178.5H178.125V188.562H178.5ZM178.5 185.562H178.875V184.062H178.5H178.125V185.562H178.5ZM178.5 182.562H178.875V181.812H178.5H178.125V182.562H178.5Z" fill="#2A2A2C" mask="url(#path-11-inside-2_601_20942)"/>
<path d="M10.292 241.438V237.21H10.9043L12.3516 240.737H12.3984L13.8457 237.21H14.458V241.438H13.9658V238.209H13.708L14.2998 237.327L12.5977 241.438H12.1523L10.4531 237.327L11.042 238.209H10.7842V241.438H10.292Z" fill="white"/>
<path d="M35.4863 241.438V237.685H34.124V237.21H37.376V237.685H36.0137V241.438H35.4863Z" fill="white"/>
<path d="M57.7617 241.438L56.6104 237.21H57.1611L58.002 240.646H58.0371L58.9834 237.21H59.5166L60.4629 240.646H60.498L61.3389 237.21H61.8896L60.7383 241.438H60.2402L59.2676 238.101H59.2324L58.2598 241.438H57.7617Z" fill="white"/>
<path d="M83.1113 241.438V237.685H81.749V237.21H85.001V237.685H83.6387V241.438H83.1113Z" fill="white"/>
<path d="M105.822 241.438V237.21H108.389V237.685H106.35V239.138H108.222V239.606H106.35V241.438H105.822Z" fill="white"/>
<path d="M131.387 241.537C131.078 241.537 130.809 241.487 130.578 241.388C130.35 241.286 130.168 241.147 130.033 240.972C129.9 240.794 129.823 240.591 129.802 240.362L129.799 240.33H130.326L130.329 240.362C130.343 240.503 130.396 240.625 130.49 240.729C130.586 240.83 130.713 240.909 130.871 240.966C131.031 241.022 131.213 241.051 131.416 241.051C131.607 241.051 131.777 241.021 131.926 240.96C132.076 240.897 132.194 240.812 132.28 240.702C132.366 240.593 132.409 240.467 132.409 240.324V240.321C132.409 240.146 132.345 239.998 132.216 239.879C132.087 239.758 131.877 239.665 131.586 239.601L131.117 239.498C130.693 239.404 130.385 239.26 130.191 239.064C130 238.867 129.904 238.615 129.904 238.309V238.306C129.906 238.071 129.97 237.864 130.095 237.685C130.222 237.505 130.396 237.364 130.619 237.263C130.844 237.161 131.102 237.11 131.393 237.11C131.674 237.11 131.923 237.161 132.14 237.263C132.356 237.362 132.528 237.497 132.655 237.667C132.784 237.837 132.855 238.027 132.869 238.238L132.872 238.279H132.345L132.339 238.241C132.319 238.116 132.269 238.006 132.187 237.91C132.104 237.812 131.995 237.735 131.858 237.679C131.722 237.622 131.562 237.595 131.378 237.597C131.202 237.597 131.044 237.624 130.903 237.679C130.763 237.733 130.65 237.812 130.566 237.916C130.484 238.018 130.443 238.143 130.443 238.291V238.294C130.443 238.462 130.506 238.604 130.631 238.719C130.756 238.834 130.962 238.923 131.249 238.985L131.718 239.091C132.013 239.155 132.25 239.239 132.43 239.343C132.609 239.446 132.74 239.573 132.822 239.724C132.906 239.872 132.948 240.048 132.948 240.251V240.254C132.948 240.518 132.884 240.745 132.755 240.937C132.626 241.128 132.444 241.276 132.21 241.382C131.976 241.485 131.701 241.537 131.387 241.537Z" fill="white"/>
<rect x="19.875" y="193.812" width="11.25" height="13.5" fill="#3A3A3C"/>
<rect x="19.875" y="207.312" width="11.25" height="7.5" fill="#FF9D0D"/>
<rect x="19.875" y="214.812" width="11.25" height="7.5" fill="#40C8E0"/>
<rect x="19.875" y="222.312" width="11.25" height="7.5" fill="#0A84FF"/>
<rect x="41.25" y="202.062" width="11.25" height="1.125" fill="#3A3A3C"/>
<rect x="41.25" y="203.188" width="11.25" height="1.125" fill="#FF9D0D"/>
<rect x="41.25" y="204.312" width="11.25" height="12.75" fill="#40C8E0"/>
<rect x="41.25" y="217.062" width="11.25" height="12.75" fill="#0A84FF"/>
<rect x="65.625" y="191.562" width="11.25" height="11.625" fill="#3A3A3C"/>
<rect x="65.625" y="203.188" width="11.25" height="7.5" fill="#FF9D0D"/>
<rect x="65.625" y="210.688" width="11.25" height="11.625" fill="#40C8E0"/>
<rect x="65.625" y="222.312" width="11.25" height="7.5" fill="#0A84FF"/>
<rect x="88.875" y="193.812" width="11.25" height="4.5" fill="#3A3A3C"/>
<rect x="88.875" y="198.312" width="11.25" height="13.5" fill="#FF9D0D"/>
<rect x="88.875" y="211.812" width="11.25" height="4.5" fill="#40C8E0"/>
<rect x="88.875" y="216.312" width="11.25" height="13.5" fill="#0A84FF"/>
<rect x="113.25" y="197.562" width="11.25" height="4.5" fill="#3A3A3C"/>
<rect x="113.25" y="202.062" width="11.25" height="7.5" fill="#FF9D0D"/>
<rect x="113.25" y="209.562" width="11.25" height="4.5" fill="#40C8E0"/>
<rect x="113.25" y="214.062" width="11.25" height="15.75" fill="#0A84FF"/>
<line x1="12.375" y1="198.688" x2="178.5" y2="198.687" stroke="#9F9FA1" stroke-width="0.75" stroke-dasharray="1.88 1.88"/>
</g>
<rect x="135.5" width="2" height="253" fill="url(#paint0_linear_601_20942)"/>
<path d="M185.453 88L190.208 74.9043H192.563L197.283 88H195.165L194.005 84.5986H188.723L187.527 88H185.453ZM189.312 82.9375H193.434L192.643 80.6172C192.467 80.0781 192.279 79.501 192.08 78.8857C191.881 78.2705 191.652 77.5381 191.395 76.6885C191.131 77.5381 190.899 78.2705 190.7 78.8857C190.501 79.501 190.311 80.0781 190.129 80.6172L189.312 82.9375ZM202.864 78.7188V80.248H200.975V88H199.12V80.248H197.459V78.7188H199.12V77.2158C199.12 76.4834 199.349 75.915 199.806 75.5107C200.269 75.1064 200.919 74.9043 201.757 74.9043H202.864V76.4336H202.047C201.654 76.4336 201.376 76.5156 201.212 76.6797C201.054 76.8438 200.975 77.1221 200.975 77.5146V78.7188H202.864ZM208.076 78.7188V80.248H206.195V85.5479C206.195 85.8936 206.266 86.1338 206.406 86.2686C206.547 86.4033 206.802 86.4707 207.171 86.4707H208.076V88H206.907C205.19 88 204.332 87.2617 204.332 85.7852V80.248H202.697V78.7188H204.332V76.1875H206.195V78.7188H208.076ZM213.35 88.2109C212.43 88.2109 211.639 88.0029 210.977 87.5869C210.32 87.1709 209.813 86.5996 209.456 85.873C209.104 85.1406 208.929 84.3086 208.929 83.377C208.929 82.4336 209.113 81.5957 209.482 80.8633C209.852 80.1309 210.361 79.5566 211.012 79.1406C211.662 78.7188 212.409 78.5078 213.253 78.5078C214.132 78.5078 214.894 78.7129 215.538 79.123C216.188 79.5332 216.692 80.1045 217.05 80.8369C217.407 81.5635 217.586 82.4043 217.586 83.3594V83.8604H210.757C210.792 84.6982 211.032 85.375 211.478 85.8906C211.929 86.4062 212.562 86.6641 213.376 86.6641C213.985 86.6641 214.486 86.5264 214.879 86.251C215.271 85.9756 215.532 85.6182 215.661 85.1787H217.445C217.334 85.7764 217.085 86.3037 216.698 86.7607C216.317 87.2178 215.837 87.5752 215.257 87.833C214.683 88.085 214.047 88.2109 213.35 88.2109ZM210.774 82.4541H215.775C215.699 81.7158 215.438 81.1328 214.993 80.7051C214.548 80.2715 213.974 80.0547 213.271 80.0547C212.567 80.0547 211.993 80.2715 211.548 80.7051C211.108 81.1328 210.851 81.7158 210.774 82.4541ZM219.194 88V78.7188H220.97V80.2217H221.005C221.175 79.7119 221.441 79.3164 221.805 79.0352C222.174 78.748 222.654 78.6045 223.246 78.6045C223.387 78.6045 223.516 78.6104 223.633 78.6221C223.75 78.6338 223.847 78.6426 223.923 78.6484V80.3799C223.853 80.3623 223.727 80.3447 223.545 80.3271C223.363 80.3037 223.164 80.292 222.947 80.292C222.426 80.292 221.978 80.4736 221.603 80.8369C221.233 81.2002 221.049 81.7598 221.049 82.5156V88H219.194Z" fill="#A7A7A7"/>
<path d="M173.008 111V97.9043H174.959V103.45H181.472V97.9043H183.423V111H181.472V105.155H174.959V111H173.008ZM189.637 111.211C188.717 111.211 187.926 111.003 187.264 110.587C186.607 110.171 186.101 109.6 185.743 108.873C185.392 108.141 185.216 107.309 185.216 106.377C185.216 105.434 185.4 104.596 185.77 103.863C186.139 103.131 186.648 102.557 187.299 102.141C187.949 101.719 188.696 101.508 189.54 101.508C190.419 101.508 191.181 101.713 191.825 102.123C192.476 102.533 192.979 103.104 193.337 103.837C193.694 104.563 193.873 105.404 193.873 106.359V106.86H187.044C187.079 107.698 187.319 108.375 187.765 108.891C188.216 109.406 188.849 109.664 189.663 109.664C190.272 109.664 190.773 109.526 191.166 109.251C191.559 108.976 191.819 108.618 191.948 108.179H193.732C193.621 108.776 193.372 109.304 192.985 109.761C192.604 110.218 192.124 110.575 191.544 110.833C190.97 111.085 190.334 111.211 189.637 111.211ZM187.062 105.454H192.062C191.986 104.716 191.726 104.133 191.28 103.705C190.835 103.271 190.261 103.055 189.558 103.055C188.854 103.055 188.28 103.271 187.835 103.705C187.396 104.133 187.138 104.716 187.062 105.454ZM198.417 111.149C197.491 111.149 196.724 110.915 196.114 110.446C195.505 109.972 195.2 109.271 195.2 108.346C195.2 107.643 195.373 107.104 195.719 106.729C196.07 106.348 196.524 106.075 197.081 105.911C197.644 105.747 198.238 105.627 198.865 105.551C199.445 105.48 199.905 105.422 200.245 105.375C200.585 105.328 200.825 105.258 200.966 105.164C201.112 105.07 201.186 104.909 201.186 104.681V104.602C201.186 104.15 201.021 103.781 200.693 103.494C200.365 103.201 199.905 103.055 199.313 103.055C198.722 103.055 198.238 103.198 197.863 103.485C197.488 103.767 197.283 104.121 197.248 104.549H195.429C195.47 103.664 195.842 102.94 196.545 102.378C197.248 101.815 198.18 101.534 199.34 101.534C200.482 101.534 201.382 101.815 202.038 102.378C202.694 102.94 203.022 103.693 203.022 104.637V111H201.194V109.682H201.159C200.966 110.057 200.658 110.396 200.236 110.701C199.82 111 199.214 111.149 198.417 111.149ZM198.795 109.655C199.615 109.655 200.219 109.444 200.605 109.022C200.998 108.595 201.194 108.097 201.194 107.528V106.438C201.071 106.538 200.793 106.629 200.359 106.711C199.926 106.787 199.463 106.86 198.971 106.931C198.461 107.007 198.013 107.15 197.626 107.361C197.239 107.572 197.046 107.912 197.046 108.381C197.046 108.779 197.201 109.093 197.512 109.321C197.828 109.544 198.256 109.655 198.795 109.655ZM208.683 111.185C207.874 111.185 207.168 110.982 206.564 110.578C205.961 110.168 205.492 109.603 205.158 108.882C204.824 108.155 204.657 107.314 204.657 106.359C204.657 105.404 204.824 104.566 205.158 103.846C205.498 103.119 205.97 102.554 206.573 102.149C207.177 101.739 207.877 101.534 208.674 101.534C209.277 101.534 209.828 101.66 210.326 101.912C210.824 102.164 211.223 102.548 211.521 103.063H211.539V97.9043H213.394V111H211.574V109.585H211.557C211.246 110.124 210.839 110.525 210.335 110.789C209.837 111.053 209.286 111.185 208.683 111.185ZM209.061 109.585C209.852 109.585 210.481 109.292 210.95 108.706C211.425 108.114 211.662 107.332 211.662 106.359C211.662 105.381 211.425 104.599 210.95 104.013C210.481 103.421 209.852 103.125 209.061 103.125C208.311 103.125 207.701 103.403 207.232 103.96C206.77 104.511 206.538 105.311 206.538 106.359C206.538 107.408 206.77 108.208 207.232 108.759C207.701 109.31 208.311 109.585 209.061 109.585ZM220.768 111.211C219.719 111.211 218.805 111.012 218.025 110.613C217.252 110.209 216.648 109.652 216.215 108.943C215.787 108.234 215.573 107.426 215.573 106.518V97.9043H217.516V106.359C217.516 107.256 217.806 107.994 218.386 108.574C218.972 109.154 219.766 109.444 220.768 109.444C221.775 109.444 222.569 109.154 223.149 108.574C223.735 107.994 224.028 107.256 224.028 106.359V97.9043H225.971V106.518C225.971 107.426 225.754 108.234 225.32 108.943C224.893 109.652 224.289 110.209 223.51 110.613C222.73 111.012 221.816 111.211 220.768 111.211ZM228.159 114.674V101.719H229.979V103.055H230.005C230.298 102.545 230.699 102.164 231.209 101.912C231.719 101.66 232.275 101.534 232.879 101.534C233.676 101.534 234.376 101.739 234.979 102.149C235.583 102.554 236.052 103.119 236.386 103.846C236.726 104.566 236.896 105.404 236.896 106.359C236.896 107.314 236.729 108.155 236.395 108.882C236.061 109.603 235.592 110.168 234.988 110.578C234.385 110.982 233.679 111.185 232.87 111.185C232.267 111.185 231.722 111.053 231.235 110.789C230.749 110.525 230.351 110.13 230.04 109.603H230.014V114.674H228.159ZM232.492 109.585C233.242 109.585 233.849 109.31 234.312 108.759C234.78 108.208 235.015 107.408 235.015 106.359C235.015 105.311 234.78 104.511 234.312 103.96C233.849 103.403 233.242 103.125 232.492 103.125C231.701 103.125 231.068 103.421 230.594 104.013C230.125 104.599 229.891 105.381 229.891 106.359C229.891 107.332 230.125 108.114 230.594 108.706C231.068 109.292 231.701 109.585 232.492 109.585Z" fill="white"/>
<g clip-path="url(#clip3_601_20942)">
<path d="M137.5 128H264.125C268.543 128 272.125 131.582 272.125 136V245C272.125 249.418 268.543 253 264.125 253H137.5V128Z" fill="#202020" fill-opacity="0.3"/>
<path d="M147.179 171.438V170.529L150.753 166.662C151.203 166.174 151.554 165.771 151.808 165.454C152.062 165.131 152.24 164.841 152.343 164.582C152.445 164.323 152.497 164.04 152.497 163.732V163.718C152.497 163.347 152.416 163.015 152.255 162.722C152.094 162.429 151.864 162.197 151.566 162.026C151.269 161.855 150.912 161.77 150.497 161.77C150.077 161.77 149.708 161.857 149.391 162.033C149.074 162.204 148.827 162.446 148.651 162.758C148.476 163.066 148.388 163.427 148.388 163.842L148.38 163.857L147.121 163.85L147.106 163.842C147.111 163.217 147.262 162.663 147.56 162.18C147.858 161.691 148.268 161.311 148.791 161.037C149.313 160.759 149.911 160.62 150.585 160.62C151.2 160.62 151.754 160.749 152.248 161.008C152.741 161.262 153.129 161.611 153.412 162.055C153.7 162.5 153.844 163.007 153.844 163.579V163.593C153.844 163.994 153.773 164.379 153.632 164.75C153.495 165.122 153.251 165.534 152.899 165.988C152.548 166.438 152.052 166.992 151.413 167.651L148.681 170.471L149.01 169.863V170.471L148.688 170.251H154.02V171.438H147.179ZM156.312 171.438V160.407H157.587V164.729H157.704C157.904 164.309 158.192 163.984 158.568 163.754C158.944 163.52 159.423 163.403 160.004 163.403C160.595 163.403 161.095 163.518 161.505 163.747C161.916 163.972 162.228 164.301 162.443 164.736C162.658 165.17 162.765 165.7 162.765 166.325V171.438H161.491V166.633C161.491 165.92 161.339 165.393 161.037 165.051C160.739 164.704 160.275 164.531 159.645 164.531C159.225 164.531 158.861 164.621 158.554 164.802C158.246 164.982 158.007 165.239 157.836 165.571C157.67 165.903 157.587 166.301 157.587 166.765V171.438H156.312ZM171.869 171.438V162.333H171.752L169.064 164.282V162.89L171.876 160.869H173.188V171.438H171.869ZM176.249 171.438V163.542H177.523V164.743H177.641C177.816 164.318 178.085 163.989 178.446 163.754C178.812 163.52 179.254 163.403 179.772 163.403C180.128 163.403 180.448 163.461 180.731 163.579C181.015 163.696 181.259 163.859 181.464 164.069C181.669 164.274 181.833 164.514 181.955 164.787H182.072C182.213 164.509 182.404 164.267 182.643 164.062C182.882 163.852 183.158 163.691 183.471 163.579C183.788 163.461 184.127 163.403 184.489 163.403C185.026 163.403 185.48 163.503 185.851 163.703C186.227 163.903 186.513 164.196 186.708 164.582C186.903 164.963 187.001 165.429 187.001 165.981V171.438H185.727V166.274C185.727 165.883 185.666 165.561 185.543 165.307C185.426 165.048 185.246 164.855 185.001 164.729C184.757 164.597 184.45 164.531 184.079 164.531C183.712 164.531 183.393 164.614 183.119 164.78C182.846 164.946 182.633 165.168 182.482 165.446C182.331 165.72 182.255 166.025 182.255 166.362V171.438H180.98V166.076C180.98 165.764 180.912 165.493 180.775 165.263C180.644 165.029 180.453 164.848 180.204 164.721C179.96 164.594 179.672 164.531 179.34 164.531C178.998 164.531 178.688 164.621 178.41 164.802C178.136 164.982 177.919 165.227 177.758 165.534C177.602 165.837 177.523 166.174 177.523 166.545V171.438H176.249Z" fill="white"/>
<path d="M149.086 152.606C148.566 152.606 148.111 152.522 147.722 152.353C147.336 152.182 147.03 151.948 146.802 151.651C146.578 151.352 146.448 151.009 146.412 150.623L146.407 150.569H147.297L147.302 150.623C147.325 150.86 147.415 151.066 147.574 151.241C147.735 151.412 147.949 151.546 148.216 151.642C148.487 151.737 148.793 151.785 149.136 151.785C149.459 151.785 149.746 151.734 149.996 151.632C150.25 151.526 150.449 151.381 150.594 151.197C150.739 151.012 150.812 150.799 150.812 150.559V150.554C150.812 150.257 150.703 150.008 150.486 149.807C150.268 149.603 149.914 149.446 149.423 149.338L148.632 149.165C147.916 149.006 147.396 148.763 147.069 148.433C146.746 148.1 146.585 147.675 146.585 147.157V147.153C146.588 146.757 146.695 146.408 146.906 146.104C147.12 145.801 147.415 145.564 147.791 145.393C148.17 145.221 148.605 145.135 149.096 145.135C149.571 145.135 149.991 145.221 150.357 145.393C150.723 145.561 151.013 145.788 151.227 146.075C151.445 146.362 151.565 146.683 151.588 147.039L151.593 147.108H150.703L150.693 147.044C150.66 146.833 150.575 146.647 150.436 146.485C150.298 146.32 150.113 146.19 149.882 146.095C149.652 145.999 149.381 145.953 149.072 145.956C148.775 145.956 148.508 146.002 148.271 146.095C148.033 146.187 147.844 146.32 147.702 146.495C147.564 146.666 147.495 146.877 147.495 147.128V147.133C147.495 147.416 147.6 147.655 147.811 147.85C148.022 148.044 148.37 148.194 148.854 148.299L149.645 148.477C150.143 148.586 150.543 148.728 150.846 148.903C151.15 149.077 151.37 149.292 151.509 149.545C151.651 149.796 151.721 150.092 151.721 150.435V150.44C151.721 150.885 151.613 151.269 151.395 151.592C151.178 151.915 150.871 152.166 150.476 152.344C150.08 152.518 149.617 152.606 149.086 152.606ZM155.276 152.531C154.778 152.531 154.347 152.418 153.981 152.19C153.615 151.963 153.332 151.642 153.13 151.226C152.929 150.811 152.829 150.322 152.829 149.758V149.748C152.829 149.194 152.928 148.713 153.126 148.304C153.327 147.896 153.61 147.579 153.976 147.355C154.342 147.128 154.773 147.014 155.271 147.014C155.703 147.014 156.075 147.09 156.388 147.242C156.702 147.393 156.952 147.597 157.14 147.855C157.328 148.108 157.448 148.393 157.501 148.71L157.506 148.74H156.651L156.646 148.725C156.58 148.461 156.43 148.237 156.196 148.052C155.962 147.868 155.654 147.775 155.271 147.775C154.951 147.775 154.675 147.856 154.441 148.018C154.207 148.179 154.025 148.408 153.897 148.705C153.772 148.998 153.709 149.346 153.709 149.748V149.758C153.709 150.167 153.773 150.523 153.902 150.826C154.03 151.126 154.212 151.358 154.446 151.523C154.68 151.688 154.955 151.77 155.271 151.77C155.63 151.77 155.924 151.693 156.151 151.538C156.379 151.383 156.542 151.157 156.641 150.86L156.651 150.831L157.501 150.826L157.491 150.88C157.418 151.2 157.29 151.485 157.105 151.735C156.921 151.983 156.677 152.177 156.374 152.319C156.07 152.461 155.705 152.531 155.276 152.531ZM158.762 152.438V147.108H159.622V147.899H159.701C159.803 147.619 159.976 147.401 160.22 147.246C160.464 147.092 160.765 147.014 161.125 147.014C161.207 147.014 161.288 147.019 161.367 147.029C161.449 147.036 161.512 147.042 161.555 147.049V147.884C161.466 147.868 161.378 147.856 161.293 147.85C161.21 147.84 161.121 147.835 161.026 147.835C160.752 147.835 160.51 147.889 160.299 147.998C160.088 148.107 159.922 148.258 159.8 148.453C159.681 148.647 159.622 148.875 159.622 149.135V152.438H158.762ZM164.645 152.531C164.137 152.531 163.7 152.419 163.335 152.195C162.972 151.971 162.692 151.655 162.494 151.246C162.3 150.834 162.202 150.35 162.202 149.793V149.788C162.202 149.237 162.3 148.754 162.494 148.339C162.692 147.924 162.97 147.599 163.33 147.365C163.689 147.131 164.109 147.014 164.59 147.014C165.075 147.014 165.49 147.126 165.836 147.35C166.186 147.574 166.453 147.888 166.637 148.29C166.825 148.688 166.919 149.153 166.919 149.684V150.02H162.647V149.333H166.479L166.054 149.961V149.62C166.054 149.201 165.991 148.857 165.866 148.586C165.741 148.316 165.568 148.115 165.347 147.983C165.126 147.848 164.872 147.78 164.585 147.78C164.299 147.78 164.042 147.851 163.814 147.993C163.59 148.131 163.412 148.337 163.28 148.611C163.148 148.885 163.082 149.221 163.082 149.62V149.961C163.082 150.34 163.147 150.664 163.275 150.935C163.404 151.202 163.587 151.408 163.824 151.553C164.061 151.694 164.341 151.765 164.664 151.765C164.905 151.765 165.114 151.732 165.292 151.666C165.47 151.6 165.617 151.516 165.732 151.414C165.848 151.312 165.928 151.208 165.975 151.103L165.994 151.058H166.855L166.845 151.098C166.799 151.279 166.716 151.455 166.598 151.627C166.482 151.795 166.332 151.948 166.148 152.086C165.963 152.222 165.744 152.33 165.49 152.413C165.24 152.492 164.958 152.531 164.645 152.531ZM170.429 152.531C169.921 152.531 169.485 152.419 169.119 152.195C168.756 151.971 168.476 151.655 168.278 151.246C168.084 150.834 167.987 150.35 167.987 149.793V149.788C167.987 149.237 168.084 148.754 168.278 148.339C168.476 147.924 168.755 147.599 169.114 147.365C169.473 147.131 169.893 147.014 170.375 147.014C170.859 147.014 171.274 147.126 171.62 147.35C171.97 147.574 172.237 147.888 172.421 148.29C172.609 148.688 172.703 149.153 172.703 149.684V150.02H168.432V149.333H172.263L171.838 149.961V149.62C171.838 149.201 171.775 148.857 171.65 148.586C171.525 148.316 171.352 148.115 171.131 147.983C170.91 147.848 170.656 147.78 170.37 147.78C170.083 147.78 169.826 147.851 169.598 147.993C169.374 148.131 169.196 148.337 169.065 148.611C168.933 148.885 168.867 149.221 168.867 149.62V149.961C168.867 150.34 168.931 150.664 169.06 150.935C169.188 151.202 169.371 151.408 169.608 151.553C169.846 151.694 170.126 151.765 170.449 151.765C170.689 151.765 170.899 151.732 171.077 151.666C171.255 151.6 171.401 151.516 171.517 151.414C171.632 151.312 171.713 151.208 171.759 151.103L171.779 151.058H172.639L172.629 151.098C172.583 151.279 172.5 151.455 172.382 151.627C172.266 151.795 172.117 151.948 171.932 152.086C171.747 152.222 171.528 152.33 171.274 152.413C171.024 152.492 170.742 152.531 170.429 152.531ZM174.038 152.438V147.108H174.898V147.909H174.977C175.112 147.625 175.307 147.406 175.561 147.251C175.815 147.093 176.138 147.014 176.53 147.014C177.13 147.014 177.589 147.185 177.909 147.528C178.232 147.868 178.394 148.354 178.394 148.987V152.438H177.533V149.194C177.533 148.713 177.431 148.357 177.227 148.126C177.026 147.892 176.713 147.775 176.287 147.775C176.004 147.775 175.758 147.836 175.551 147.958C175.343 148.08 175.182 148.253 175.066 148.477C174.954 148.702 174.898 148.97 174.898 149.283V152.438H174.038ZM184.761 152.438V146.104H182.462V145.304H187.95V146.104H185.651V152.438H184.761ZM189.137 152.438V147.108H189.997V152.438H189.137ZM189.572 146.08C189.41 146.08 189.27 146.022 189.151 145.907C189.036 145.788 188.978 145.648 188.978 145.486C188.978 145.322 189.036 145.182 189.151 145.066C189.27 144.951 189.41 144.893 189.572 144.893C189.736 144.893 189.876 144.951 189.992 145.066C190.107 145.182 190.165 145.322 190.165 145.486C190.165 145.648 190.107 145.788 189.992 145.907C189.876 146.022 189.736 146.08 189.572 146.08ZM191.618 152.438V147.108H192.479V147.919H192.558C192.676 147.632 192.858 147.41 193.102 147.251C193.349 147.093 193.647 147.014 193.996 147.014C194.237 147.014 194.453 147.054 194.644 147.133C194.835 147.212 195 147.322 195.138 147.464C195.277 147.602 195.387 147.764 195.47 147.948H195.549C195.644 147.761 195.773 147.597 195.934 147.459C196.096 147.317 196.282 147.209 196.493 147.133C196.707 147.054 196.936 147.014 197.18 147.014C197.543 147.014 197.849 147.082 198.1 147.217C198.354 147.352 198.546 147.55 198.678 147.81C198.81 148.067 198.876 148.382 198.876 148.754V152.438H198.016V148.952C198.016 148.688 197.974 148.471 197.892 148.299C197.813 148.125 197.691 147.995 197.526 147.909C197.361 147.82 197.154 147.775 196.903 147.775C196.656 147.775 196.44 147.831 196.256 147.944C196.071 148.056 195.928 148.206 195.826 148.393C195.723 148.578 195.672 148.784 195.672 149.011V152.438H194.812V148.819C194.812 148.608 194.766 148.425 194.674 148.27C194.585 148.112 194.456 147.99 194.288 147.904C194.123 147.818 193.929 147.775 193.705 147.775C193.474 147.775 193.265 147.836 193.077 147.958C192.892 148.08 192.746 148.245 192.637 148.453C192.531 148.657 192.479 148.885 192.479 149.135V152.438H191.618ZM202.604 152.531C202.096 152.531 201.659 152.419 201.293 152.195C200.931 151.971 200.651 151.655 200.453 151.246C200.259 150.834 200.161 150.35 200.161 149.793V149.788C200.161 149.237 200.259 148.754 200.453 148.339C200.651 147.924 200.929 147.599 201.289 147.365C201.648 147.131 202.068 147.014 202.549 147.014C203.034 147.014 203.449 147.126 203.795 147.35C204.144 147.574 204.411 147.888 204.596 148.29C204.784 148.688 204.878 149.153 204.878 149.684V150.02H200.606V149.333H204.438L204.013 149.961V149.62C204.013 149.201 203.95 148.857 203.825 148.586C203.699 148.316 203.526 148.115 203.306 147.983C203.085 147.848 202.831 147.78 202.544 147.78C202.258 147.78 202 147.851 201.773 147.993C201.549 148.131 201.371 148.337 201.239 148.611C201.107 148.885 201.041 149.221 201.041 149.62V149.961C201.041 150.34 201.106 150.664 201.234 150.935C201.363 151.202 201.546 151.408 201.783 151.553C202.02 151.694 202.3 151.765 202.623 151.765C202.864 151.765 203.073 151.732 203.251 151.666C203.429 151.6 203.576 151.516 203.691 151.414C203.807 151.312 203.887 151.208 203.933 151.103L203.953 151.058H204.813L204.804 151.098C204.757 151.279 204.675 151.455 204.556 151.627C204.441 151.795 204.291 151.948 204.107 152.086C203.922 152.222 203.703 152.33 203.449 152.413C203.198 152.492 202.917 152.531 202.604 152.531Z" fill="#A9A9AB"/>
<g clip-path="url(#clip4_601_20942)">
<mask id="path-51-inside-3_601_20942" fill="white">
<path d="M148.625 181.812H314.75V229.813H148.625V181.812Z"/>
</mask>
<line x1="148.625" y1="193.625" x2="314.75" y2="193.625" stroke="#2A2A2C" stroke-width="0.375"/>
<line x1="148.625" y1="205.625" x2="314.75" y2="205.625" stroke="#2A2A2C" stroke-width="0.375"/>
<line x1="148.625" y1="217.625" x2="314.75" y2="217.625" stroke="#2A2A2C" stroke-width="0.375"/>
</g>
<path d="M148.625 181.812V182.188H314.75V181.812V181.438H148.625V181.812ZM314.75 229.813V229.438H148.625V229.813V230.188H314.75V229.813Z" fill="#2A2A2C" mask="url(#path-51-inside-3_601_20942)"/>
<g clip-path="url(#clip5_601_20942)">
<mask id="path-56-inside-4_601_20942" fill="white">
<path d="M148.625 181.812H314.75V229.812H148.625V181.812Z"/>
</mask>
<line x1="172.062" y1="229.812" x2="172.062" y2="181.812" stroke="#2A2A2C" stroke-width="0.375" stroke-dasharray="1.5 1.5"/>
<line x1="195.838" y1="229.812" x2="195.838" y2="181.812" stroke="#2A2A2C" stroke-width="0.375" stroke-dasharray="1.5 1.5"/>
<line x1="219.612" y1="229.812" x2="219.612" y2="181.812" stroke="#2A2A2C" stroke-width="0.375" stroke-dasharray="1.5 1.5"/>
<line x1="243.388" y1="229.812" x2="243.388" y2="181.812" stroke="#2A2A2C" stroke-width="0.375" stroke-dasharray="1.5 1.5"/>
<line x1="267.162" y1="229.812" x2="267.162" y2="181.812" stroke="#2A2A2C" stroke-width="0.375" stroke-dasharray="1.5 1.5"/>
</g>
<path d="M148.625 181.812H148.438V182.562H148.625H148.812V181.812H148.625ZM148.625 184.062H148.438V185.562H148.625H148.812V184.062H148.625ZM148.625 187.062H148.438V188.562H148.625H148.812V187.062H148.625ZM148.625 190.062H148.438V191.562H148.625H148.812V190.062H148.625ZM148.625 193.062H148.438V194.562H148.625H148.812V193.062H148.625ZM148.625 196.062H148.438V197.562H148.625H148.812V196.062H148.625ZM148.625 199.062H148.438V200.562H148.625H148.812V199.062H148.625ZM148.625 202.062H148.438V203.562H148.625H148.812V202.062H148.625ZM148.625 205.062H148.438V206.562H148.625H148.812V205.062H148.625ZM148.625 208.062H148.438V209.562H148.625H148.812V208.062H148.625ZM148.625 211.062H148.438V212.562H148.625H148.812V211.062H148.625ZM148.625 214.062H148.438V215.562H148.625H148.812V214.062H148.625ZM148.625 217.062H148.438V218.562H148.625H148.812V217.062H148.625ZM148.625 220.062H148.438V221.562H148.625H148.812V220.062H148.625ZM148.625 223.062H148.438V224.562H148.625H148.812V223.062H148.625ZM148.625 226.062H148.438V227.562H148.625H148.812V226.062H148.625ZM148.625 229.062H148.438V229.812H148.625H148.812V229.062H148.625ZM314.75 229.812H314.938V229.062H314.75H314.562V229.812H314.75ZM314.75 227.562H314.938V226.062H314.75H314.562V227.562H314.75ZM314.75 224.562H314.938V223.062H314.75H314.562V224.562H314.75ZM314.75 221.562H314.938V220.062H314.75H314.562V221.562H314.75ZM314.75 218.562H314.938V217.062H314.75H314.562V218.562H314.75ZM314.75 215.562H314.938V214.062H314.75H314.562V215.562H314.75ZM314.75 212.562H314.938V211.062H314.75H314.562V212.562H314.75ZM314.75 209.562H314.938V208.062H314.75H314.562V209.562H314.75ZM314.75 206.562H314.938V205.062H314.75H314.562V206.562H314.75ZM314.75 203.562H314.938V202.062H314.75H314.562V203.562H314.75ZM314.75 200.562H314.938V199.062H314.75H314.562V200.562H314.75ZM314.75 197.562H314.938V196.062H314.75H314.562V197.562H314.75ZM314.75 194.562H314.938V193.062H314.75H314.562V194.562H314.75ZM314.75 191.562H314.938V190.062H314.75H314.562V191.562H314.75ZM314.75 188.562H314.938V187.062H314.75H314.562V188.562H314.75ZM314.75 185.562H314.938V184.062H314.75H314.562V185.562H314.75ZM314.75 182.562H314.938V181.812H314.75H314.562V182.562H314.75ZM148.625 181.812H148.25V182.562H148.625H149V181.812H148.625ZM148.625 184.062H148.25V185.562H148.625H149V184.062H148.625ZM148.625 187.062H148.25V188.562H148.625H149V187.062H148.625ZM148.625 190.062H148.25V191.562H148.625H149V190.062H148.625ZM148.625 193.062H148.25V194.562H148.625H149V193.062H148.625ZM148.625 196.062H148.25V197.562H148.625H149V196.062H148.625ZM148.625 199.062H148.25V200.562H148.625H149V199.062H148.625ZM148.625 202.062H148.25V203.562H148.625H149V202.062H148.625ZM148.625 205.062H148.25V206.562H148.625H149V205.062H148.625ZM148.625 208.062H148.25V209.562H148.625H149V208.062H148.625ZM148.625 211.062H148.25V212.562H148.625H149V211.062H148.625ZM148.625 214.062H148.25V215.562H148.625H149V214.062H148.625ZM148.625 217.062H148.25V218.562H148.625H149V217.062H148.625ZM148.625 220.062H148.25V221.562H148.625H149V220.062H148.625ZM148.625 223.062H148.25V224.562H148.625H149V223.062H148.625ZM148.625 226.062H148.25V227.562H148.625H149V226.062H148.625ZM148.625 229.062H148.25V229.812H148.625H149V229.062H148.625ZM314.75 229.812H315.125V229.062H314.75H314.375V229.812H314.75ZM314.75 227.562H315.125V226.062H314.75H314.375V227.562H314.75ZM314.75 224.562H315.125V223.062H314.75H314.375V224.562H314.75ZM314.75 221.562H315.125V220.062H314.75H314.375V221.562H314.75ZM314.75 218.562H315.125V217.062H314.75H314.375V218.562H314.75ZM314.75 215.562H315.125V214.062H314.75H314.375V215.562H314.75ZM314.75 212.562H315.125V211.062H314.75H314.375V212.562H314.75ZM314.75 209.562H315.125V208.062H314.75H314.375V209.562H314.75ZM314.75 206.562H315.125V205.062H314.75H314.375V206.562H314.75ZM314.75 203.562H315.125V202.062H314.75H314.375V203.562H314.75ZM314.75 200.562H315.125V199.062H314.75H314.375V200.562H314.75ZM314.75 197.562H315.125V196.062H314.75H314.375V197.562H314.75ZM314.75 194.562H315.125V193.062H314.75H314.375V194.562H314.75ZM314.75 191.562H315.125V190.062H314.75H314.375V191.562H314.75ZM314.75 188.562H315.125V187.062H314.75H314.375V188.562H314.75ZM314.75 185.562H315.125V184.062H314.75H314.375V185.562H314.75ZM314.75 182.562H315.125V181.812H314.75H314.375V182.562H314.75Z" fill="#2A2A2C" mask="url(#path-56-inside-4_601_20942)"/>
<path d="M146.542 241.438V237.21H147.154L148.602 240.737H148.648L150.096 237.21H150.708V241.438H150.216V238.209H149.958L150.55 237.327L148.848 241.438H148.402L146.703 237.327L147.292 238.209H147.034V241.438H146.542Z" fill="white"/>
<path d="M171.736 241.438V237.685H170.374V237.21H173.626V237.685H172.264V241.438H171.736Z" fill="white"/>
<path d="M194.012 241.438L192.86 237.21H193.411L194.252 240.646H194.287L195.233 237.21H195.767L196.713 240.646H196.748L197.589 237.21H198.14L196.988 241.438H196.49L195.518 238.101H195.482L194.51 241.438H194.012Z" fill="white"/>
<path d="M219.361 241.438V237.685H217.999V237.21H221.251V237.685H219.889V241.438H219.361Z" fill="white"/>
<path d="M242.072 241.438V237.21H244.639V237.685H242.6V239.138H244.472V239.606H242.6V241.438H242.072Z" fill="white"/>
<path d="M267.637 241.537C267.328 241.537 267.059 241.487 266.828 241.388C266.6 241.286 266.418 241.147 266.283 240.972C266.15 240.794 266.073 240.591 266.052 240.362L266.049 240.33H266.576L266.579 240.362C266.593 240.503 266.646 240.625 266.74 240.729C266.836 240.83 266.963 240.909 267.121 240.966C267.281 241.022 267.463 241.051 267.666 241.051C267.857 241.051 268.027 241.021 268.176 240.96C268.326 240.897 268.444 240.812 268.53 240.702C268.616 240.593 268.659 240.467 268.659 240.324V240.321C268.659 240.146 268.595 239.998 268.466 239.879C268.337 239.758 268.127 239.665 267.836 239.601L267.367 239.498C266.943 239.404 266.635 239.26 266.441 239.064C266.25 238.867 266.154 238.615 266.154 238.309V238.306C266.156 238.071 266.22 237.864 266.345 237.685C266.472 237.505 266.646 237.364 266.869 237.263C267.094 237.161 267.352 237.11 267.643 237.11C267.924 237.11 268.173 237.161 268.39 237.263C268.606 237.362 268.778 237.497 268.905 237.667C269.034 237.837 269.105 238.027 269.119 238.238L269.122 238.279H268.595L268.589 238.241C268.569 238.116 268.519 238.006 268.437 237.91C268.354 237.812 268.245 237.735 268.108 237.679C267.972 237.622 267.812 237.595 267.628 237.597C267.452 237.597 267.294 237.624 267.153 237.679C267.013 237.733 266.9 237.812 266.816 237.916C266.734 238.018 266.693 238.143 266.693 238.291V238.294C266.693 238.462 266.756 238.604 266.881 238.719C267.006 238.834 267.212 238.923 267.499 238.985L267.968 239.091C268.263 239.155 268.5 239.239 268.68 239.343C268.859 239.446 268.99 239.573 269.072 239.724C269.156 239.872 269.198 240.048 269.198 240.251V240.254C269.198 240.518 269.134 240.745 269.005 240.937C268.876 241.128 268.694 241.276 268.46 241.382C268.226 241.485 267.951 241.537 267.637 241.537Z" fill="white"/>
<rect x="156.125" y="222.312" width="11.25" height="1.625" fill="#3A3A3C"/>
<rect x="156.125" y="223.938" width="11.25" height="1.625" fill="#FF9D0D"/>
<rect x="156.125" y="225.562" width="11.25" height="2.625" fill="#40C8E0"/>
<rect x="156.125" y="228.188" width="11.25" height="1.625" fill="#0A84FF"/>
<rect x="177.5" y="219.688" width="11.25" height="1.5" fill="#3A3A3C"/>
<rect x="177.5" y="221.188" width="11.25" height="1.5" fill="#FF9D0D"/>
<rect x="177.5" y="222.688" width="11.25" height="5.625" fill="#40C8E0"/>
<rect x="177.5" y="228.312" width="11.25" height="1.5" fill="#0A84FF"/>
<rect x="201.875" y="227.188" width="11.25" height="1" fill="#3A3A3C"/>
<rect x="201.875" y="228.188" width="11.25" height="1" fill="#FF9D0D"/>
<rect x="201.875" y="229.188" width="11.25" height="1" fill="#40C8E0"/>
<rect x="201.875" y="230.188" width="11.25" height="1" fill="#0A84FF"/>
<rect x="225.125" y="213.312" width="11.25" height="4.125" fill="#3A3A3C"/>
<rect x="225.125" y="217.438" width="11.25" height="4.125" fill="#FF9D0D"/>
<rect x="225.125" y="221.562" width="11.25" height="4.125" fill="#40C8E0"/>
<rect x="225.125" y="225.688" width="11.25" height="4.125" fill="#0A84FF"/>
<rect x="249.5" y="222.688" width="11.25" height="1.78125" fill="#3A3A3C"/>
<rect x="249.5" y="224.469" width="11.25" height="1.78125" fill="#FF9D0D"/>
<rect x="249.5" y="226.25" width="11.25" height="1.78125" fill="#40C8E0"/>
<rect x="249.5" y="228.031" width="11.25" height="1.78125" fill="#0A84FF"/>
<line x1="148.625" y1="221.188" x2="314.75" y2="221.187" stroke="#9F9FA1" stroke-width="0.75" stroke-dasharray="1.88 1.88"/>
</g>
<defs>
<linearGradient id="paint0_linear_601_20942" x1="136.5" y1="0" x2="136.5" y2="253" gradientUnits="userSpaceOnUse">
<stop stop-color="#1B1B1B"/>
<stop offset="0.69" stop-color="#434343"/>
<stop offset="1" stop-color="#0B0B0B"/>
</linearGradient>
<clipPath id="clip0_601_20942">
<path d="M0.875 136C0.875 131.582 4.45672 128 8.875 128H135.5V253H8.875C4.45672 253 0.875 249.418 0.875 245V136Z" fill="white"/>
</clipPath>
<clipPath id="clip1_601_20942">
<path d="M12.375 181.812H178.5V229.813H12.375V181.812Z" fill="white"/>
</clipPath>
<clipPath id="clip2_601_20942">
<path d="M12.375 181.812H178.5V229.812H12.375V181.812Z" fill="white"/>
</clipPath>
<clipPath id="clip3_601_20942">
<path d="M137.5 128H264.125C268.543 128 272.125 131.582 272.125 136V245C272.125 249.418 268.543 253 264.125 253H137.5V128Z" fill="white"/>
</clipPath>
<clipPath id="clip4_601_20942">
<path d="M148.625 181.812H314.75V229.813H148.625V181.812Z" fill="white"/>
</clipPath>
<clipPath id="clip5_601_20942">
<path d="M148.625 181.812H314.75V229.812H148.625V181.812Z" fill="white"/>
</clipPath>
</defs>
</svg>
