<svg width="40" height="40" viewBox="0 0 40 40" fill="none" xmlns="http://www.w3.org/2000/svg">
<rect width="40" height="40" rx="20" fill="#171717"/>
<path d="M14.2986 19.0759C14.2374 20.2392 14.3078 21.4775 13.2684 22.257C12.7847 22.6198 12.5 23.1892 12.5 23.7939C12.5 24.6257 13.1515 25.3334 14 25.3334H26C26.8485 25.3334 27.5 24.6257 27.5 23.7939C27.5 23.1892 27.2153 22.6198 26.7316 22.257C25.6922 21.4775 25.7626 20.2392 25.7014 19.0759C25.5418 16.0435 23.0365 13.6667 20 13.6667C16.9635 13.6667 14.4582 16.0435 14.2986 19.0759Z" stroke="white" stroke-width="1.5" stroke-linecap="round" stroke-linejoin="round"/>
<path d="M18.75 12.1042C18.75 12.7945 19.3096 13.6667 20 13.6667C20.6904 13.6667 21.25 12.7945 21.25 12.1042C21.25 11.4138 20.6904 11.1667 20 11.1667C19.3096 11.1667 18.75 11.4138 18.75 12.1042Z" stroke="white" stroke-width="1.5"/>
<path d="M22.5 25.3333C22.5 26.714 21.3807 27.8333 20 27.8333C18.6193 27.8333 17.5 26.714 17.5 25.3333" stroke="white" stroke-width="1.5" stroke-linecap="round" stroke-linejoin="round"/>
</svg>
