<svg width="40" height="41" viewBox="0 0 40 41" fill="none" xmlns="http://www.w3.org/2000/svg">
<rect y="0.5" width="40" height="40" rx="20" fill="#171717"/>
<g clip-path="url(#clip0_601_21087)">
<path d="M21.44 12.8702L22.9065 15.8274C23.1065 16.2391 23.6398 16.6339 24.0897 16.7095L26.7478 17.1548C28.4476 17.4405 28.8475 18.6838 27.6227 19.9104L25.5562 21.9939C25.2063 22.3468 25.0146 23.0273 25.1229 23.5146L25.7146 26.0938C26.1812 28.1353 25.1063 28.925 23.3148 27.858L20.8234 26.371C20.3735 26.1022 19.6319 26.1022 19.1736 26.371L16.6822 27.858C14.8991 28.925 13.8159 28.1269 14.2825 26.0938L14.8741 23.5146C14.9824 23.0273 14.7908 22.3468 14.4408 21.9939L12.3744 19.9104C11.1578 18.6838 11.5494 17.4405 13.2493 17.1548L15.9073 16.7095C16.3489 16.6339 16.8822 16.2391 17.0822 15.8274L18.5487 12.8702C19.3486 11.2655 20.6484 11.2655 21.44 12.8702Z" stroke="white" stroke-width="1.5" stroke-linecap="round" stroke-linejoin="round"/>
</g>
<defs>
<clipPath id="clip0_601_21087">
<rect width="20" height="20" fill="white" transform="translate(10 10)"/>
</clipPath>
</defs>
</svg>
