<svg width="231" height="20" viewBox="0 0 231 20" fill="none" xmlns="http://www.w3.org/2000/svg">
<line x1="6.5" y1="5" x2="6.5" y2="-5.96244e-09" stroke="white" stroke-opacity="0.1"/>
<path d="M9.75002 12.736H8.43002C8.28602 11.968 7.86202 11.584 7.15802 11.584C6.95802 11.584 6.77402 11.624 6.60602 11.704C6.43802 11.784 6.29802 11.876 6.18602 11.98C6.07402 12.084 5.97402 12.236 5.88602 12.436C5.79802 12.628 5.73002 12.792 5.68202 12.928C5.64202 13.056 5.59802 13.244 5.55002 13.492C5.51002 13.74 5.48602 13.912 5.47802 14.008C5.47002 14.104 5.45402 14.264 5.43002 14.488C5.89402 13.8 6.53402 13.456 7.35002 13.456C8.12602 13.456 8.75002 13.712 9.22202 14.224C9.70202 14.736 9.94202 15.404 9.94202 16.228C9.94202 17.084 9.67402 17.788 9.13802 18.34C8.61002 18.892 7.93402 19.168 7.11002 19.168C6.14202 19.168 5.39802 18.804 4.87802 18.076C4.35802 17.348 4.09802 16.308 4.09802 14.956C4.09802 13.556 4.37402 12.464 4.92602 11.68C5.47802 10.896 6.24202 10.504 7.21802 10.504C7.93002 10.504 8.51002 10.7 8.95802 11.092C9.40602 11.484 9.67002 12.032 9.75002 12.736ZM7.07402 14.548C6.62602 14.548 6.27002 14.704 6.00602 15.016C5.74202 15.32 5.61002 15.728 5.61002 16.24C5.61002 16.776 5.74602 17.208 6.01802 17.536C6.29802 17.864 6.66202 18.028 7.11002 18.028C7.55002 18.028 7.90202 17.868 8.16602 17.548C8.43802 17.228 8.57402 16.804 8.57402 16.276C8.57402 15.756 8.43802 15.34 8.16602 15.028C7.89402 14.708 7.53002 14.548 7.07402 14.548Z" fill="white" fill-opacity="0.3"/>
<line x1="115" y1="5" x2="115" y2="-5.96244e-09" stroke="white" stroke-opacity="0.1"/>
<path d="M113.236 10.552V19H111.772V13.192H109.684V12.184C111.14 12.184 111.956 11.64 112.132 10.552H113.236ZM121.632 17.788V19H115.896C115.904 18.624 115.956 18.28 116.052 17.968C116.148 17.656 116.256 17.392 116.376 17.176C116.504 16.952 116.688 16.728 116.928 16.504C117.176 16.272 117.396 16.084 117.588 15.94C117.788 15.788 118.06 15.596 118.404 15.364C118.428 15.348 118.544 15.272 118.752 15.136C118.968 14.992 119.1 14.904 119.148 14.872C119.196 14.832 119.304 14.748 119.472 14.62C119.64 14.484 119.748 14.376 119.796 14.296C119.852 14.216 119.924 14.108 120.012 13.972C120.108 13.836 120.172 13.7 120.204 13.564C120.236 13.42 120.252 13.268 120.252 13.108C120.252 12.668 120.128 12.324 119.88 12.076C119.64 11.82 119.312 11.692 118.896 11.692C118.656 11.692 118.448 11.732 118.272 11.812C118.096 11.884 117.956 11.98 117.852 12.1C117.756 12.22 117.676 12.376 117.612 12.568C117.548 12.752 117.504 12.928 117.48 13.096C117.464 13.264 117.452 13.46 117.444 13.684H116.112V13.468C116.112 12.564 116.364 11.848 116.868 11.32C117.38 10.784 118.068 10.516 118.932 10.516C119.748 10.516 120.404 10.748 120.9 11.212C121.396 11.668 121.644 12.276 121.644 13.036C121.644 13.34 121.596 13.628 121.5 13.9C121.404 14.172 121.3 14.392 121.188 14.56C121.084 14.728 120.9 14.924 120.636 15.148C120.372 15.372 120.176 15.528 120.048 15.616C119.92 15.704 119.684 15.864 119.34 16.096C118.34 16.744 117.74 17.308 117.54 17.788H121.632Z" fill="white" fill-opacity="0.3"/>
<line x1="223.5" y1="5" x2="223.5" y2="-5.96244e-09" stroke="white" stroke-opacity="0.1"/>
<path d="M221.736 10.552V19H220.272V13.192H218.184V12.184C219.64 12.184 220.456 11.64 220.632 10.552H221.736ZM226.04 14.476C225.664 14.34 225.368 14.12 225.152 13.816C224.944 13.504 224.84 13.14 224.84 12.724C224.84 12.068 225.084 11.532 225.572 11.116C226.068 10.7 226.708 10.492 227.492 10.492C228.244 10.492 228.86 10.7 229.34 11.116C229.82 11.524 230.06 12.048 230.06 12.688C230.06 13.544 229.664 14.14 228.872 14.476C229.384 14.652 229.768 14.9 230.024 15.22C230.28 15.54 230.408 15.968 230.408 16.504C230.408 17.296 230.136 17.936 229.592 18.424C229.048 18.904 228.332 19.144 227.444 19.144C226.564 19.144 225.852 18.908 225.308 18.436C224.772 17.964 224.504 17.344 224.504 16.576C224.504 16.056 224.636 15.616 224.9 15.256C225.172 14.888 225.552 14.628 226.04 14.476ZM227.48 11.596C227.064 11.596 226.732 11.708 226.484 11.932C226.244 12.148 226.124 12.44 226.124 12.808C226.124 13.176 226.248 13.472 226.496 13.696C226.744 13.92 227.068 14.032 227.468 14.032C227.868 14.032 228.188 13.924 228.428 13.708C228.668 13.484 228.788 13.184 228.788 12.808C228.788 12.44 228.668 12.148 228.428 11.932C228.196 11.708 227.88 11.596 227.48 11.596ZM227.444 15.016C226.98 15.016 226.604 15.156 226.316 15.436C226.028 15.708 225.884 16.064 225.884 16.504C225.884 16.984 226.028 17.364 226.316 17.644C226.604 17.924 226.996 18.064 227.492 18.064C227.972 18.064 228.348 17.932 228.62 17.668C228.892 17.396 229.028 17.02 229.028 16.54C229.028 16.076 228.884 15.708 228.596 15.436C228.308 15.156 227.924 15.016 227.444 15.016Z" fill="white" fill-opacity="0.3"/>
</svg>
