<svg width="254" height="20" viewBox="0 0 254 20" fill="none" xmlns="http://www.w3.org/2000/svg">
<line x1="6.5" y1="5" x2="6.5" y2="-5.96244e-09" stroke="white" stroke-opacity="0.1"/>
<path d="M9.75002 12.736H8.43002C8.28602 11.968 7.86202 11.584 7.15802 11.584C6.95802 11.584 6.77402 11.624 6.60602 11.704C6.43802 11.784 6.29802 11.876 6.18602 11.98C6.07402 12.084 5.97402 12.236 5.88602 12.436C5.79802 12.628 5.73002 12.792 5.68202 12.928C5.64202 13.056 5.59802 13.244 5.55002 13.492C5.51002 13.74 5.48602 13.912 5.47802 14.008C5.47002 14.104 5.45402 14.264 5.43002 14.488C5.89402 13.8 6.53402 13.456 7.35002 13.456C8.12602 13.456 8.75002 13.712 9.22202 14.224C9.70202 14.736 9.94202 15.404 9.94202 16.228C9.94202 17.084 9.67402 17.788 9.13802 18.34C8.61002 18.892 7.93402 19.168 7.11002 19.168C6.14202 19.168 5.39802 18.804 4.87802 18.076C4.35802 17.348 4.09802 16.308 4.09802 14.956C4.09802 13.556 4.37402 12.464 4.92602 11.68C5.47802 10.896 6.24202 10.504 7.21802 10.504C7.93002 10.504 8.51002 10.7 8.95802 11.092C9.40602 11.484 9.67002 12.032 9.75002 12.736ZM7.07402 14.548C6.62602 14.548 6.27002 14.704 6.00602 15.016C5.74202 15.32 5.61002 15.728 5.61002 16.24C5.61002 16.776 5.74602 17.208 6.01802 17.536C6.29802 17.864 6.66202 18.028 7.11002 18.028C7.55002 18.028 7.90202 17.868 8.16602 17.548C8.43802 17.228 8.57402 16.804 8.57402 16.276C8.57402 15.756 8.43802 15.34 8.16602 15.028C7.89402 14.708 7.53002 14.548 7.07402 14.548Z" fill="white" fill-opacity="0.3"/>
<line x1="86.5" y1="5" x2="86.5" y2="-5.96244e-09" stroke="white" stroke-opacity="0.1"/>
<path d="M84.736 10.552V19H83.272V13.192H81.184V12.184C82.64 12.184 83.456 11.64 83.632 10.552H84.736ZM93.132 17.788V19H87.396C87.404 18.624 87.456 18.28 87.552 17.968C87.648 17.656 87.756 17.392 87.876 17.176C88.004 16.952 88.188 16.728 88.428 16.504C88.676 16.272 88.896 16.084 89.088 15.94C89.288 15.788 89.56 15.596 89.904 15.364C89.928 15.348 90.044 15.272 90.252 15.136C90.468 14.992 90.6 14.904 90.648 14.872C90.696 14.832 90.804 14.748 90.972 14.62C91.14 14.484 91.248 14.376 91.296 14.296C91.352 14.216 91.424 14.108 91.512 13.972C91.608 13.836 91.672 13.7 91.704 13.564C91.736 13.42 91.752 13.268 91.752 13.108C91.752 12.668 91.628 12.324 91.38 12.076C91.14 11.82 90.812 11.692 90.396 11.692C90.156 11.692 89.948 11.732 89.772 11.812C89.596 11.884 89.456 11.98 89.352 12.1C89.256 12.22 89.176 12.376 89.112 12.568C89.048 12.752 89.004 12.928 88.98 13.096C88.964 13.264 88.952 13.46 88.944 13.684H87.612V13.468C87.612 12.564 87.864 11.848 88.368 11.32C88.88 10.784 89.568 10.516 90.432 10.516C91.248 10.516 91.904 10.748 92.4 11.212C92.896 11.668 93.144 12.276 93.144 13.036C93.144 13.34 93.096 13.628 93 13.9C92.904 14.172 92.8 14.392 92.688 14.56C92.584 14.728 92.4 14.924 92.136 15.148C91.872 15.372 91.676 15.528 91.548 15.616C91.42 15.704 91.184 15.864 90.84 16.096C89.84 16.744 89.24 17.308 89.04 17.788H93.132Z" fill="white" fill-opacity="0.3"/>
<line x1="166.5" y1="5" x2="166.5" y2="-5.96244e-09" stroke="white" stroke-opacity="0.1"/>
<path d="M164.736 10.552V19H163.272V13.192H161.184V12.184C162.64 12.184 163.456 11.64 163.632 10.552H164.736ZM169.04 14.476C168.664 14.34 168.368 14.12 168.152 13.816C167.944 13.504 167.84 13.14 167.84 12.724C167.84 12.068 168.084 11.532 168.572 11.116C169.068 10.7 169.708 10.492 170.492 10.492C171.244 10.492 171.86 10.7 172.34 11.116C172.82 11.524 173.06 12.048 173.06 12.688C173.06 13.544 172.664 14.14 171.872 14.476C172.384 14.652 172.768 14.9 173.024 15.22C173.28 15.54 173.408 15.968 173.408 16.504C173.408 17.296 173.136 17.936 172.592 18.424C172.048 18.904 171.332 19.144 170.444 19.144C169.564 19.144 168.852 18.908 168.308 18.436C167.772 17.964 167.504 17.344 167.504 16.576C167.504 16.056 167.636 15.616 167.9 15.256C168.172 14.888 168.552 14.628 169.04 14.476ZM170.48 11.596C170.064 11.596 169.732 11.708 169.484 11.932C169.244 12.148 169.124 12.44 169.124 12.808C169.124 13.176 169.248 13.472 169.496 13.696C169.744 13.92 170.068 14.032 170.468 14.032C170.868 14.032 171.188 13.924 171.428 13.708C171.668 13.484 171.788 13.184 171.788 12.808C171.788 12.44 171.668 12.148 171.428 11.932C171.196 11.708 170.88 11.596 170.48 11.596ZM170.444 15.016C169.98 15.016 169.604 15.156 169.316 15.436C169.028 15.708 168.884 16.064 168.884 16.504C168.884 16.984 169.028 17.364 169.316 17.644C169.604 17.924 169.996 18.064 170.492 18.064C170.972 18.064 171.348 17.932 171.62 17.668C171.892 17.396 172.028 17.02 172.028 16.54C172.028 16.076 171.884 15.708 171.596 15.436C171.308 15.156 170.924 15.016 170.444 15.016Z" fill="white" fill-opacity="0.3"/>
<line x1="246.5" y1="5" x2="246.5" y2="-5.96244e-09" stroke="white" stroke-opacity="0.1"/>
<path d="M246.224 17.788V19H240.488C240.496 18.624 240.548 18.28 240.644 17.968C240.74 17.656 240.848 17.392 240.968 17.176C241.096 16.952 241.28 16.728 241.52 16.504C241.768 16.272 241.988 16.084 242.18 15.94C242.38 15.788 242.652 15.596 242.996 15.364C243.02 15.348 243.136 15.272 243.344 15.136C243.56 14.992 243.692 14.904 243.74 14.872C243.788 14.832 243.896 14.748 244.064 14.62C244.232 14.484 244.34 14.376 244.388 14.296C244.444 14.216 244.516 14.108 244.604 13.972C244.7 13.836 244.764 13.7 244.796 13.564C244.828 13.42 244.844 13.268 244.844 13.108C244.844 12.668 244.72 12.324 244.472 12.076C244.232 11.82 243.904 11.692 243.488 11.692C243.248 11.692 243.04 11.732 242.864 11.812C242.688 11.884 242.548 11.98 242.444 12.1C242.348 12.22 242.268 12.376 242.204 12.568C242.14 12.752 242.096 12.928 242.072 13.096C242.056 13.264 242.044 13.46 242.036 13.684H240.704V13.468C240.704 12.564 240.956 11.848 241.46 11.32C241.972 10.784 242.66 10.516 243.524 10.516C244.34 10.516 244.996 10.748 245.492 11.212C245.988 11.668 246.236 12.276 246.236 13.036C246.236 13.34 246.188 13.628 246.092 13.9C245.996 14.172 245.892 14.392 245.78 14.56C245.676 14.728 245.492 14.924 245.228 15.148C244.964 15.372 244.768 15.528 244.64 15.616C244.512 15.704 244.276 15.864 243.932 16.096C242.932 16.744 242.332 17.308 242.132 17.788H246.224ZM253.384 15.856V17.008H252.316V19H250.996L250.984 17.008H247.42V15.652L251.02 10.528H252.316V15.856H253.384ZM251.008 15.856V12.22L248.548 15.856H251.008Z" fill="white" fill-opacity="0.3"/>
</svg>
